<?xml version="1.0" encoding="utf-8"?>
<!-- Generator: Adobe Illustrator 23.0.6, SVG Export Plug-In . SVG Version: 6.00 Build 0)  -->
<svg version="1.1" id="logo" xmlns="http://www.w3.org/2000/svg" xmlns:xlink="http://www.w3.org/1999/xlink" x="0px" y="0px"
	 viewBox="0 0 2687.6 2687.6" style="enable-background:new 0 0 2687.6 2687.6;" xml:space="preserve">
<style type="text/css">
	.st0{fill:#EE0000;}
	.st1{fill:#FFFFFF;}
</style>
<path class="st0" d="M2651.1,1343.8c0,722.1-585.3,1307.4-1307.5,1307.4c-722,0-1307.5-585.3-1307.5-1307.4
	c0-722,585.4-1307.5,1307.5-1307.5C2065.7,36.3,2651.1,621.8,2651.1,1343.8"/>
<path class="st1" d="M1365.6,853.8l338.4,835.1l-511.1-402.6L1365.6,853.8z M1966.7,1881.2L1446.3,628.7
	c-14.8-36.2-44.5-55.3-80.6-55.3c-36.1,0-68,19.1-82.8,55.3L711.6,2002.6H907l226.1-566.5l674.8,545.2c27.2,22,46.7,31.9,72.2,31.9
	c51,0,95.5-38.3,95.5-93.4C1975.6,1910.8,1972.5,1896.5,1966.7,1881.2"/>
</svg>
