<svg id="ab448800-a53b-418f-a1a8-12c5ec77eebe" data-name="Layer 1" xmlns="http://www.w3.org/2000/svg" width="100" height="100" viewBox="0 0 100 100"><defs><style>.a7d66dcf-7cfd-4013-88f0-811d8ee2b35a{fill:#e00;}.bf1616b4-dad0-4764-84e8-6018c59e51e6{fill:#fff;}</style></defs><title>Product_Icon-Red_Hat-Ansible-RGB</title><circle class="a7d66dcf-7cfd-4013-88f0-811d8ee2b35a" cx="50" cy="50" r="49" transform="translate(-7.71 90.85) rotate(-80.29)"/><path class="bf1616b4-dad0-4764-84e8-6018c59e51e6" d="M73.19,69.63,54.07,22.53a3.15,3.15,0,0,0-3-2.09,3.25,3.25,0,0,0-3.12,2L26.12,73.79l7.32.06,8.65-21.16L67.21,73.33a4.06,4.06,0,0,0,2.7,1.21,3.5,3.5,0,0,0,3.61-3.47A4.75,4.75,0,0,0,73.19,69.63ZM51,30.94l12.43,31.4-19-15.24Z"/></svg>