<?xml version="1.0" encoding="utf-8"?>
<!-- Generator: Adobe Illustrator 23.0.1, SVG Export Plug-In . SVG Version: 6.00 Build 0)  -->
<svg version="1.1" id="Layer_1" xmlns="http://www.w3.org/2000/svg" xmlns:xlink="http://www.w3.org/1999/xlink" x="0px" y="0px"
	 viewBox="0 0 138.8 95" style="enable-background:new 0 0 138.8 95;" xml:space="preserve">
<style type="text/css">
	.st0{fill:#0066CC;}
</style>
<g>
	<g>
		<path class="st0" d="M115.3,24.1C110.9,9.9,97.6,0,82.7,0c-15,0-28.2,9.8-32.6,24c-2.4-0.9-5-1.3-7.6-1.3
			c-10.6,0-19.7,7.3-22.1,17.5c-9.5,0.3-17.5,6.9-19.6,16.2c-0.1,0.4,0,0.9,0.3,1.2s0.7,0.5,1.1,0.5h48.7c-0.2,1.5-0.3,3.1-0.3,4.6
			C50.6,80.5,65.1,95,82.8,95c17.8,0,32.2-14.5,32.2-32.2c0-1.6-0.1-3.1-0.3-4.6H136c0.7,0,1.3-0.5,1.4-1.2c0.3-1.7,0.4-3.3,0.4-4.9
			C137.8,38.6,128.4,26.9,115.3,24.1z M82.8,92c-16.1,0-29.3-13.1-29.3-29.3c0-16.1,13.1-29.3,29.3-29.3c16.1,0,29.3,13.1,29.3,29.3
			C112.1,78.9,99,92,82.8,92z M134.8,55.3h-20.6C110.8,41.1,98,30.5,82.8,30.5s-28,10.6-31.3,24.8H4.1C6.5,48,13.3,43,21.3,43l0,0
			h0.2c0.7,0.1,1.3-0.5,1.4-1.2c1.7-9.5,10-16.4,19.6-16.4c2.6,0,5.1,0.5,7.5,1.5c1.5,0.7,4.6,2.5,6.6,5.8c0.2,0.4,0.7,0.6,1.1,0.5
			c0.1,0,0.2-0.1,0.4-0.1c0.5-0.3,0.7-0.9,0.4-1.5c-1.7-2.8-4.1-4.7-5.9-5.8c3.7-13.6,16-23.1,30.2-23.1c13.6,0,25.6,8.7,29.7,21.5
			c-3.6,0-6.4,1.3-6.5,1.4c-0.5,0.2-0.8,0.8-0.6,1.4c0.2,0.5,0.8,0.8,1.4,0.6c0,0,3.8-1.5,8-0.8c11.8,2.6,20.4,13,20.4,25.2
			C135,53.1,134.9,54.2,134.8,55.3z"/>
	</g>
</g>
<g>
	<g>
		<path class="st0" d="M94.3,57.6c-0.9,0-1.6,0.7-1.6,1.6s0.7,1.6,1.6,1.6c0.9,0,1.6-0.7,1.6-1.6C95.9,58.3,95.2,57.6,94.3,57.6z
			 M94.3,60.1c-0.5,0-0.8-0.4-0.8-0.8c0-0.5,0.4-0.8,0.8-0.8c0.5,0,0.8,0.4,0.8,0.8S94.7,60.1,94.3,60.1z"/>
		<path class="st0" d="M104.5,59.4l-3-0.7c-0.2-0.1-0.8-0.2-0.9-0.7c-0.5-2-1.8-3.7-3.2-5.2c0.3-0.6,0.3-1.5,0.9-2.4
			c0.7-1,1.7-2.2,0.4-2.8c-0.3-0.1-0.7-0.2-1-0.2c-1.7,0-3.9,1.1-4.8,2c-1.7-1-3.6-1.7-5.7-2.1c-0.4-2.2-2.4-3.9-4.7-3.9
			c-2.3,0-4.2,1.6-4.7,3.8c-8.3,1.6-14.6,7.7-14.6,15.1c0,0.3,0,0.6,0,0.8c0,0,0,0-0.1,0.1c-0.5,0.4-1,1-1.4,1.8
			c-0.3,0.8-0.4,1.6-0.3,2.3c0.1,1.6,1.3,2.9,2.3,3.3c0.4,0.1,0.7,0.2,0.9,0.2c0.5,0,0.8-0.2,0.8-0.3c0-0.3-0.5-0.5-1-1
			c-0.5-0.5-0.7-1.3-0.5-2.1c0-0.1,0.1-0.3,0.1-0.4c0.7,1.7,1.9,3.2,3.4,4.5c0.6,2.8,1.8,4.5,1.8,4.5s0.7,4.3,2.1,4.3h4.3
			c0.8,0,1.6-0.7,1.8-1.5c0,0-0.7-1.5-0.8-2.5c0-0.2,0-0.4,0.1-0.6c1.7,0.3,3.5,0.5,5.4,0.5c1,0,2.1-0.1,3.1-0.2
			c0,0,1.4,4.3,2.8,4.3h4.3c0.8,0,1.5-0.7,1.5-1.5c0,0-0.9-1.5-1.2-2.5c-0.2-0.9,0.7-2.4,0.7-2.4c2.8-1.4,5-3.3,6.4-5.7l2.5,0.6
			c0.1,0,0.3,0,0.4,0c0.8,0,1.5-0.5,1.7-1.4l1.3-5.6C106,60.6,105.4,59.6,104.5,59.4z M82.5,44.1c1.8,0,3.4,1.2,3.8,2.9
			c0.1,0.3,0.1,0.7,0.1,1.1c0,0,0,0,0,0.1c0,0.3,0,0.6-0.1,0.8c-0.2,0-0.3-0.1-0.5-0.1c0.1-0.3,0.1-0.5,0.1-0.8c0,0,0,0,0,0
			c0-0.4-0.1-0.8-0.2-1.1c-0.5-1.4-1.8-2.4-3.3-2.4c-1.5,0-2.8,1-3.3,2.3C79.1,47.2,79,47.6,79,48c0,0,0,0,0,0.1
			c0,0.3,0,0.6,0.1,0.9c-0.2,0-0.3,0.1-0.5,0.1c-0.1-0.3-0.1-0.7-0.1-1c0,0,0,0,0,0c0-0.4,0.1-0.8,0.2-1.1
			C79.2,45.3,80.7,44.1,82.5,44.1z M79.6,48c0,0,0-0.1,0-0.1c0-0.4,0.1-0.8,0.3-1.1c0.5-1,1.5-1.7,2.7-1.7c1.2,0,2.2,0.7,2.7,1.7
			c0.2,0.3,0.2,0.7,0.3,1.1c0,0,0,0,0,0.1c0,0.2,0,0.5-0.1,0.7c-2-0.3-4.1-0.2-5.7,0.1C79.6,48.6,79.6,48.3,79.6,48z M104.7,61.3
			l-1.3,5.6c-0.1,0.3-0.3,0.5-0.7,0.5c-0.1,0-0.1,0-0.2,0l-2.5-0.6c-0.1,0-0.2,0-0.3,0c-0.4,0-0.7,0.2-0.9,0.5
			c-1.2,2.1-3.2,3.9-5.9,5.2c-0.2,0.1-0.4,0.2-0.5,0.4c-0.2,0.3-1.1,2-0.8,3.2c0.2,0.9,0.8,1.9,1.1,2.5c-0.1,0.1-0.2,0.3-0.4,0.3
			h-4.2c-0.5-0.3-1.3-1.9-1.8-3.6c0,0,0-0.1-0.1-0.1c0.7-0.1,1.4-0.3,2.1-0.4c0.2-0.1,0.3-0.3,0.3-0.5c-0.1-0.2-0.3-0.3-0.5-0.3
			c-1,0.2-2,0.4-3,0.6c0,0,0,0,0,0c-1,0.1-2,0.1-2.9,0.1c-1.8,0-3.5-0.2-5.2-0.5c0,0,0,0,0,0c-1.9-0.4-3.8-1-5.5-1.9
			c-0.2-0.1-0.4,0-0.5,0.2c-0.1,0.2,0,0.4,0.2,0.5c1.5,0.7,3.1,1.3,4.7,1.7c0,0.1-0.1,0.1-0.1,0.2c-0.1,0.2-0.2,0.6-0.1,1
			c0.1,0.9,0.5,1.9,0.7,2.5C76.3,78.8,76,79,75.8,79h-4.2c-0.4-0.4-0.9-2-1.1-3.4c0-0.2-0.1-0.3-0.2-0.5c0,0-1.1-1.5-1.6-4.1
			c-0.1-0.2-0.2-0.4-0.4-0.6c-1.4-1.2-2.4-2.6-3.1-4.1c-0.2-0.4-0.6-0.7-1-0.7c0,0,0,0,0,0c-0.4,0-0.8,0.3-1,0.7
			c-0.1,0.2-0.1,0.4-0.2,0.6c-0.1,0.4-0.1,0.9,0,1.3c-0.2-0.3-0.3-0.8-0.4-1.2c-0.1-0.6,0-1.2,0.2-1.8c0.2-0.5,0.6-1,1.1-1.4l0,0
			l0,0c0.3-0.2,0.4-0.6,0.4-0.9c0-0.2,0-0.5,0-0.7c0-6.7,5.7-12.3,13.4-13.9c0,0.4,0.1,0.8,0.2,1.1c-0.4,0.1-0.7,0.2-0.8,0.3
			c-0.2,0.1-0.2,0.4-0.1,0.6c0.1,0.1,0.2,0.2,0.3,0.2c0.1,0,0.2,0,0.2-0.1c0.1-0.1,0.3-0.2,0.6-0.3c0.2-0.1,0.5-0.2,0.8-0.2
			c0.2,0,0.3-0.1,0.5-0.1c0.2,0,0.4-0.1,0.6-0.1c1.4-0.2,3.2-0.4,5-0.1c0.2,0,0.4,0.1,0.6,0.1c0.2,0,0.4,0.1,0.5,0.1
			c0.3,0.1,0.5,0.1,0.8,0.2c0.2,0.1,0.4,0.2,0.7,0.3c0.2,0.1,0.4,0,0.5-0.2c0.1-0.2,0-0.4-0.2-0.5c-0.2-0.1-0.5-0.2-0.7-0.3
			c0.1-0.3,0.1-0.6,0.1-0.9c1.8,0.4,3.5,1.1,5.1,2c0.2,0.1,0.3,0.1,0.5,0.1c0.3,0,0.6-0.1,0.8-0.3c0.7-0.7,2.6-1.7,4-1.7
			c0.2,0,0.3,0,0.5,0.1c-0.1,0.3-0.4,0.6-0.5,0.9c-0.1,0.1-0.2,0.3-0.3,0.4c-0.5,0.8-0.7,1.5-0.9,2.1c-0.1,0.2-0.1,0.4-0.2,0.5
			c-0.2,0.4-0.1,0.8,0.2,1.2c1.6,1.7,2.5,3.2,3,4.8c0.2,0.8,0.8,1.3,1.7,1.5l3,0.7c0.2,0,0.3,0.2,0.4,0.3
			C104.7,60.9,104.8,61.1,104.7,61.3z"/>
	</g>
</g>
</svg>
