<svg version="1.1" id="Layer_1" xmlns="http://www.w3.org/2000/svg" xmlns:xlink="http://www.w3.org/1999/xlink" x="0px" y="0px"
	 viewBox="0 0 136.9 95" style="enable-background:new 0 0 136.9 95;" xml:space="preserve">
<style type="text/css">
	.st0{fill:#0066CC;}
</style>
<g>
	<g>
		<path class="st0" d="M114.3,24.1C110,9.9,96.7,0,81.8,0c-15,0-28.1,9.8-32.5,23.9c-2.4-0.9-5-1.3-7.6-1.3
			c-10.6,0-19.7,7.3-22.1,17.5C10.1,40.4,2.1,47,0,56.3c-0.1,0.4,0,0.9,0.3,1.2c0.3,0.3,0.7,0.5,1.1,0.5h48.7
			c-0.2,1.5-0.3,3.1-0.3,4.6c0,17.7,14.4,32.2,32.2,32.2c17.7,0,32.2-14.4,32.2-32.2c0-1.6-0.1-3.1-0.3-4.6H135
			c0.7,0,1.3-0.5,1.4-1.2c0.3-1.7,0.4-3.3,0.4-4.9C136.9,38.5,127.4,26.9,114.3,24.1z M81.9,91.9c-16.1,0-29.2-13.1-29.2-29.2
			c0-16.1,13.1-29.2,29.2-29.2s29.2,13.1,29.2,29.2S98,91.9,81.9,91.9z M133.8,55.2h-20.6c-3.4-14.2-16.1-24.7-31.3-24.7
			c-15.2,0-27.9,10.6-31.3,24.7H3.3c2.4-7.3,9.2-12.3,17.2-12.3h0l0.2,0c0.7,0.1,1.3-0.5,1.4-1.2c1.7-9.5,9.9-16.3,19.6-16.3
			c2.6,0,5.1,0.5,7.5,1.5c1.5,0.7,4.6,2.5,6.6,5.8c0.2,0.4,0.7,0.6,1.1,0.5c0.1,0,0.2-0.1,0.4-0.1c0.5-0.3,0.7-0.9,0.4-1.4
			c-1.7-2.8-4.1-4.7-5.9-5.8c3.7-13.6,16-23.1,30.1-23.1c13.6,0,25.5,8.7,29.6,21.5c-3.6,0-6.4,1.3-6.5,1.4
			c-0.5,0.2-0.8,0.8-0.6,1.4c0.2,0.5,0.8,0.8,1.4,0.6c0,0,3.8-1.5,8-0.8c11.8,2.6,20.3,13,20.3,25.2C134,53,134,54.1,133.8,55.2z"/>
	</g>
	<g>
		<path class="st0" d="M101.4,60.9l-3.8-4.2c-1.4-2.9-3.5-5.4-6.2-7.2c0.1-0.4,0.2-0.8,0.2-1.2c0-2.6-2.1-4.7-4.7-4.7
			c-2,0-3.8,1.3-4.4,3.1c-0.1,0-0.3,0-0.4,0c-3.9,0-7.7,1.3-10.8,3.8l-1.5-1.2c-0.1-0.1-0.3-0.1-0.4-0.1l-0.2,0
			c-0.2,0.1-0.4,0.2-0.4,0.5l-1.4,5.5c-1.6,2.7-2.4,5.7-2.4,8.8c0,0.3,0,0.7,0,1c-1.6,0.8-2.6,2.4-2.6,4.2c0,2.6,2.1,4.7,4.7,4.7
			c0.3,0,0.6,0,1-0.1c2.3,3.3,5.6,5.7,9.5,6.7l-0.2,1.8c0,0.2,0.1,0.4,0.3,0.6c0.1,0.1,0.3,0.1,0.4,0.1c0.1,0,0.1,0,0.2,0l5.4-1.9
			c3-0.3,5.9-1.3,8.4-3.1c0.8,0.5,1.7,0.8,2.7,0.8c2.6,0,4.7-2.1,4.7-4.7c0-1.3-0.5-2.5-1.5-3.4c0.9-2.2,1.4-4.4,1.4-6.8
			c0-0.4,0-0.9-0.1-1.3l1.9-0.6c0.2-0.1,0.4-0.2,0.4-0.5C101.6,61.3,101.5,61,101.4,60.9z M94.5,77c-0.6,0-1.1-0.2-1.6-0.5
			c-0.3-0.2-0.5-0.4-0.7-0.7c-0.4-0.5-0.6-1.1-0.6-1.8c0-1.6,1.3-2.9,2.9-2.9c0.4,0,0.9,0.1,1.3,0.3c0.3,0.1,0.6,0.3,0.8,0.6
			c0.5,0.5,0.8,1.3,0.8,2C97.4,75.7,96.1,77,94.5,77z M66.8,66.2c1.6,0,2.9,1.3,2.9,2.9c0,1.1-0.6,2-1.5,2.5
			c-0.3,0.2-0.6,0.3-0.9,0.3c-0.1,0-0.3,0-0.5,0c-1.6,0-2.9-1.3-2.9-2.9c0-1,0.6-2,1.5-2.5c0.3-0.2,0.6-0.3,0.9-0.3
			C66.5,66.3,66.7,66.2,66.8,66.2z M71.6,69.1c0-2.6-2.1-4.7-4.7-4.7c-0.1,0-0.2,0-0.3,0c0-0.2,0-0.3,0-0.5c0-3,0.9-5.9,2.5-8.4
			l4.3-2.1c0.2-0.1,0.3-0.3,0.4-0.5c0-0.2-0.1-0.5-0.2-0.6l-0.8-0.7c2.7-2,6-3.1,9.3-3.1c0.1,0,0.1,0,0.2,0c0.1,2.5,2.2,4.5,4.7,4.5
			c1.5,0,2.8-0.7,3.7-1.8c2.5,1.7,4.4,4,5.6,6.8l-0.6,4.8c0,0.2,0.1,0.5,0.2,0.6c0.1,0.1,0.3,0.2,0.4,0.2l1.1-0.3c0,0.2,0,0.5,0,0.8
			c0,2-0.4,3.9-1.1,5.8c-0.5-0.2-1.1-0.3-1.7-0.3c-2.6,0-4.7,2.1-4.7,4.7c0,0.9,0.3,1.8,0.8,2.6c-2.3,1.6-5,2.5-7.8,2.6l-4.1-2.4
			c-0.1-0.1-0.2-0.1-0.3-0.1c-0.1,0-0.2,0-0.3,0.1c-0.2,0.1-0.3,0.3-0.4,0.5l-0.1,1.2c-3.2-1-5.9-2.9-7.9-5.6
			C70.8,72.1,71.6,70.7,71.6,69.1z M89.6,49c-0.1,0.3-0.2,0.6-0.4,0.9c-0.5,0.8-1.4,1.3-2.4,1.3c-1.6,0-2.9-1.3-2.9-2.9
			c0-0.3,0.1-0.6,0.2-0.9c0.4-1.1,1.5-1.9,2.7-1.9c1.6,0,2.9,1.3,2.9,2.9C89.7,48.5,89.7,48.7,89.6,49z"/>
	</g>
</g>
</svg>
