<?xml version="1.0" encoding="UTF-8"?>
<svg width="56px" height="49px" viewBox="0 0 56 49" version="1.1" xmlns="http://www.w3.org/2000/svg" xmlns:xlink="http://www.w3.org/1999/xlink">
    <!-- Generator: Sketch 63.1 (92452) - https://sketch.com -->
    <title>Insights-icon</title>
    <desc>Created with Sketch.</desc>
    <g id="Post-summit-dashboard,-August-19" stroke="none" stroke-width="1" fill="none" fill-rule="evenodd">
        <g id="RHCS-Landing-Icons-2" transform="translate(-231.000000, -223.000000)" fill="#EE0000" fill-rule="nonzero">
            <g id="Insights-icon" transform="translate(231.000000, 223.000000)">
                <path d="M49.9,9.9 C50.7,9.9 51.4,9.2 51.4,8.4 L51.4,2.2 C51.4,1.4 50.7,0.7 49.9,0.7 L5.1,0.7 C4.7,0.7 4.3,0.8 4,1.1 C3.7,1.4 3.6,1.8 3.6,2.2 L3.6,30.8 C3.6,31.6 4.3,32.3 5.1,32.3 C5.9,32.3 6.6,31.6 6.6,30.8 L6.6,3.8 L48.4,3.8 L48.4,8.3 C48.4,8.7 48.5,9.1 48.8,9.4 C49.1,9.7 49.5,9.9 49.9,9.9 Z" id="Path"></path>
                <path d="M5.1,41.4 C4.7,41.4 4.3,41.6 4,41.8 C3.7,42.1 3.6,42.5 3.6,42.9 L3.6,47 C3.6,47.8 4.3,48.5 5.1,48.5 L49.9,48.5 C50.7,48.5 51.4,47.8 51.4,47 L51.4,22.6 C51.4,21.8 50.7,21.1 49.9,21.1 C49.1,21.1 48.4,21.8 48.4,22.6 L48.4,45.5 L6.6,45.5 L6.6,42.9 C6.6,42.1 5.9,41.4 5.1,41.4 L5.1,41.4 Z" id="Path_1_"></path>
                <path d="M52.9,10.3 L28,34.2 L17.6,24.1 C17.3,23.8 16.9,23.7 16.5,23.7 C16.1,23.7 15.7,23.9 15.4,24.1 L1,37.8 C0.5,38.2 0.4,38.9 0.6,39.5 C0.8,40.1 1.4,40.4 2.1,40.4 C2.5,40.4 2.9,40.2 3.2,40 L16.5,27.3 L26.9,37.4 C27.5,38 28.5,38 29.1,37.4 L55.1,12.4 C55.7,11.8 55.7,10.8 55.1,10.3 C54.4,9.7 53.5,9.7 52.9,10.3 Z" id="Path_2_"></path>
                <path d="M12.7,8.3 L12.7,16.4 C12.7,17.2 13.6,17.9 14.7,17.9 C15.8,17.9 16.7,17.2 16.7,16.4 L16.7,8.3 C16.7,7.5 15.8,6.8 14.7,6.8 C13.6,6.8 12.7,7.5 12.7,8.3 Z" id="Path_3_"></path>
                <path d="M26,8.3 L26,24.6 C26,25.4 26.9,26.1 28,26.1 C29.1,26.1 30,25.4 30,24.6 L30,8.3 C30,7.5 29.1,6.8 28,6.8 C26.9,6.8 26,7.5 26,8.3 Z" id="Path_4_"></path>
                <path d="M37.2,8.3 L37.2,16.4 C37.2,17.2 38.1,17.9 39.2,17.9 C40.3,17.9 41.2,17.2 41.2,16.4 L41.2,8.3 C41.2,7.5 40.3,6.8 39.2,6.8 C38.1,6.8 37.2,7.5 37.2,8.3 Z" id="Path_5_"></path>
            </g>
        </g>
    </g>
</svg>