<svg version="1.1" id="Layer_1" xmlns="http://www.w3.org/2000/svg" xmlns:xlink="http://www.w3.org/1999/xlink" x="0px" y="0px"
	 viewBox="0 0 67.2 67.5" style="enable-background:new 0 0 67.2 67.5;" xml:space="preserve">
<style type="text/css">
	.st0{fill:#0066CC;}
</style>
<path class="st0" d="M23.4,16.4V1.9c0-0.7-0.5-1.2-1.2-1.2H7.7c-0.7,0-1.2,0.5-1.2,1.2v14.4c0,0.7,0.5,1.2,1.2,1.2h14.4
	C22.8,17.6,23.4,17,23.4,16.4z M21,15.2h-12v-12h12V15.2z M29.6,10.3h23.8c3.2,0,5.9,2.6,5.9,5.9s-2.6,5.9-5.9,5.9h-0.8v-2.4
	l-6.2,3.6l6.2,3.6v-2.4h0.8c4.6,0,8.3-3.7,8.3-8.3S58,7.9,53.5,7.9H29.6c-0.7,0-1.2,0.5-1.2,1.2C28.4,9.8,29,10.3,29.6,10.3z
	 M19.1,36.2h-0.8c-3.2,0-5.9-2.6-5.9-5.9c0-3.2,2.6-5.9,5.9-5.9h23.8c0.7,0,1.2-0.5,1.2-1.2s-0.5-1.2-1.2-1.2H18.3
	c-4.6,0-8.3,3.7-8.3,8.3s3.7,8.3,8.3,8.3h0.8v2.4l6.2-3.6l-6.2-3.6V36.2z M60.3,35.2H31c-0.7,0-1.2,0.5-1.2,1.2v29.3
	c0,0.7,0.5,1.2,1.2,1.2h29.3c0.7,0,1.2-0.5,1.2-1.2V36.4C61.5,35.7,60.9,35.2,60.3,35.2z M59.1,64.5H32.2V37.6h26.9V64.5z
	 M44.3,57.4c0.2,0.2,0.5,0.4,0.8,0.4c0.1,0,0.1,0,0.2,0c0.4-0.1,0.7-0.3,0.9-0.7l6.2-12.7c0.3-0.6,0-1.3-0.6-1.6
	c-0.6-0.3-1.3,0-1.6,0.6l-5.4,11.2l-3-3c-0.5-0.5-1.2-0.5-1.7,0c-0.5,0.5-0.5,1.2,0,1.7L44.3,57.4z"/>
</svg>
