<svg id="a7bfd368-efa2-4785-ba2a-aa9c0c508563" data-name="Layer 1" xmlns="http://www.w3.org/2000/svg" width="100" height="100" viewBox="0 0 100 100"><defs><style>.a18430ac-df22-44ae-a57d-d788d7b67128{fill:#e00;}.a8090248-91b4-4d35-a86c-f0364dfcf5b4{fill:#c00;}.ec2286c4-1e75-4045-8d04-5d16729c9899{fill:#a30000;}</style></defs><title>Product_Icon-Red_Hat-OpenShift</title><path class="a18430ac-df22-44ae-a57d-d788d7b67128" d="M64.38,23.5a29.06,29.06,0,0,1,8.5,6.06l15.74-5.73A45,45,0,0,0,7.17,53.47l15.74-5.73A29.16,29.16,0,0,1,64.38,23.5"/><path class="a18430ac-df22-44ae-a57d-d788d7b67128" d="M16,58.19,1,63.63A45.59,45.59,0,0,0,8,78.87l15.7-5.71a29.41,29.41,0,0,1-7.78-15"/><path class="a18430ac-df22-44ae-a57d-d788d7b67128" d="M81.16,52.25a28.75,28.75,0,0,1-2.64,10.1A29.25,29.25,0,0,1,39.67,76.49a28.66,28.66,0,0,1-8.52-6l-15.7,5.72A44.95,44.95,0,0,0,92.81,69a44.52,44.52,0,0,0,4-22.48Z"/><path class="a18430ac-df22-44ae-a57d-d788d7b67128" d="M85,33l-15,5.45A29.3,29.3,0,0,1,73.74,55l15.7-5.71A45.37,45.37,0,0,0,85,33"/><path class="a8090248-91b4-4d35-a86c-f0364dfcf5b4" d="M29.46,45.36,13.72,51.09A45.63,45.63,0,0,0,15,58.54l15-5.44a29,29,0,0,1-.46-7.74"/><path class="a8090248-91b4-4d35-a86c-f0364dfcf5b4" d="M99,28a45.49,45.49,0,0,0-3.84-6.52L79.43,27.18a29.38,29.38,0,0,1,4.62,6.22Z"/><path class="a8090248-91b4-4d35-a86c-f0364dfcf5b4" d="M15.45,76.17a46.07,46.07,0,0,0,4,4.86l17.09-6.24a29.29,29.29,0,0,1-5.39-4.34ZM96.86,46.54l-15.7,5.71A29.11,29.11,0,0,1,79.83,59l17.09-6.24a46.22,46.22,0,0,0-.06-6.23"/><path class="ec2286c4-1e75-4045-8d04-5d16729c9899" d="M29.4,48.52a27.78,27.78,0,0,1,.06-3.16L13.72,51.09c.08,1,.21,2,.36,3Z"/><path class="ec2286c4-1e75-4045-8d04-5d16729c9899" d="M96.72,23.82c-.5-.81-1-1.6-1.56-2.38L79.43,27.18a27.28,27.28,0,0,1,1.94,2.22Z"/></svg>