<?xml version="1.0" encoding="utf-8"?>
<!-- Generator: Adobe Illustrator 23.0.1, SVG Export Plug-In . SVG Version: 6.00 Build 0)  -->
<svg version="1.1" id="Icon" xmlns="http://www.w3.org/2000/svg" xmlns:xlink="http://www.w3.org/1999/xlink" x="0px" y="0px"
	 viewBox="0 0 36 36" style="enable-background:new 0 0 36 36;" xml:space="preserve">
<style type="text/css">
	.st0{fill:none;}
	.st1{fill:#EE0000;}
</style>
<title>Icon-Red_Hat-IT_Optimization-A-Red-RGB</title>
<circle class="st0" cx="24.8" cy="16.3" r="1.9"/>
<path class="st1" d="M35.1,28H0.9C0.4,28,0,28.4,0,28.9c0,0.5,0.4,0.9,0.9,0.9h34.2c0.5,0,0.9-0.4,0.9-0.9
	C35.9,28.4,35.5,28,35.1,28z"/>
<path class="st1" d="M4.3,26.3h27.4c0.5,0,0.9-0.4,0.9-0.9V7.2c0-0.5-0.4-0.8-0.9-0.9H21.4c-0.5,0-0.9,0.4-0.9,0.9S20.9,8,21.4,8
	h9.4v16.5H5.1V8h9.4c0.5,0,0.9-0.4,0.9-0.9S15,6.3,14.5,6.3H4.3c-0.5,0-0.8,0.4-0.9,0.9v18.2C3.4,25.9,3.8,26.3,4.3,26.3z"/>
<path class="st1" d="M18,8c0.5,0,0.9-0.4,0.9-0.9c0-0.5-0.4-0.8-0.9-0.8c-0.2,0-0.4,0.1-0.6,0.3c-0.1,0.1-0.1,0.2-0.2,0.3
	c0,0.1-0.1,0.2-0.1,0.3C17.1,7.7,17.5,8.1,18,8L18,8z"/>
<path class="st1" d="M14.8,12.6v6h-1.7v-3.7c0-0.5-0.4-0.9-0.9-0.9s-0.9,0.4-0.9,0.9v3.7H9.7v-1.4c0-0.5-0.4-0.9-0.9-0.9
	S8,16.7,8,17.2v1.4H7.7c-0.5,0-0.9,0.4-0.9,0.9c0,0.5,0.4,0.9,0.9,0.9h9.1c0.5,0,0.9-0.4,0.9-0.9c0-0.5-0.4-0.9-0.9-0.9h-0.3v-6
	c0-0.5-0.4-0.8-0.9-0.9l0,0C15.2,11.7,14.8,12.1,14.8,12.6C14.8,12.6,14.8,12.6,14.8,12.6z"/>
<path class="st1" d="M21.2,15.4c-0.5,0-0.9,0.4-0.9,0.9c0,0.5,0.4,0.9,0.9,0.9c0,0,0,0,0,0h0.2c0.1,0.3,0.2,0.7,0.4,1l-0.1,0.1
	c-0.3,0.3-0.3,0.9,0,1.2c0,0,0,0,0,0c0.2,0.2,0.4,0.3,0.6,0.3c0.2,0,0.4-0.1,0.6-0.3l0.1-0.1c0.3,0.2,0.6,0.3,1,0.4v0.2
	c0,0.5,0.4,0.9,0.9,0.9c0.5,0,0.9-0.4,0.9-0.9v-0.2c0.3-0.1,0.7-0.2,1-0.4l0.1,0.1c0.2,0.2,0.4,0.3,0.6,0.3c0.2,0,0.4-0.1,0.6-0.3
	c0.3-0.3,0.3-0.9,0-1.2c0,0,0,0,0,0l-0.1-0.1c0.2-0.3,0.3-0.6,0.4-1h0.2c0.5,0,0.9-0.4,0.9-0.9c0-0.5-0.4-0.9-0.9-0.9h-0.3
	c-0.1-0.3-0.2-0.7-0.4-1l0.1-0.1c0.3-0.3,0.3-0.9,0-1.2c-0.3-0.3-0.8-0.3-1.2,0l-0.1,0.1c-0.3-0.2-0.6-0.3-1-0.4v-0.2
	c0-0.5-0.4-0.9-0.9-0.9c-0.5,0-0.9,0.4-0.9,0.9v0.2c-0.3,0.1-0.7,0.2-1,0.4l-0.1-0.1c-0.3-0.3-0.9-0.3-1.2,0c-0.3,0.3-0.3,0.8,0,1.2
	l0.1,0.1c-0.2,0.3-0.3,0.6-0.4,1L21.2,15.4z M24.8,14.4c1,0,1.9,0.8,1.9,1.9c0,1-0.8,1.9-1.9,1.9c-1,0-1.9-0.8-1.9-1.9c0,0,0,0,0,0
	C22.9,15.2,23.8,14.4,24.8,14.4z"/>
</svg>
