<svg id="Layer_1" data-name="Layer 1" xmlns="http://www.w3.org/2000/svg" viewBox="0 0 615 244"><defs><style>.cls-1{fill:#e00;}</style></defs><title>Logo-Red_Hat-Satellite-A-Standard-RGB</title><path d="M227.76,198.78c7.9,7.69,16,11.44,25.06,11.44,10.51,0,17.68-5,17.68-12.17,0-6.45-4.16-9.67-14.77-11.44l-12.17-2c-13.31-2.18-19.86-8.42-19.86-18.92,0-12.69,10.61-20.91,26.83-20.91a48.86,48.86,0,0,1,29.33,9.88l-6,8.32c-7.91-6-15.71-8.94-23.82-8.94-9.46,0-15.81,4.36-15.81,10.81,0,5.93,3.64,8.74,13,10.3L259,177c15.39,2.5,22.36,8.84,22.36,20.18,0,13.41-11.65,22.36-29,22.36a43.83,43.83,0,0,1-31.2-13.11Z"/><path d="M289.53,203.35c0-10,8.11-16.12,21.42-16.12a37.23,37.23,0,0,1,14.46,2.92v-5.62c0-7.49-4.47-11.23-12.9-11.23-4.88,0-9.88,1.35-16.43,4.47l-3.85-7.8c7.91-3.75,14.77-5.41,21.74-5.41,13.73,0,21.63,6.76,21.63,18.93v35H325.41V214A25.07,25.07,0,0,1,309,219.47C297.43,219.47,289.53,212.92,289.53,203.35Zm21.84,8.43a20.38,20.38,0,0,0,14-5v-9.16a27.54,27.54,0,0,0-13.62-3.22c-7.6,0-12.28,3.43-12.28,8.74C299.51,208.24,304.3,211.78,311.37,211.78Z"/><path d="M352.35,174.34H341.11V165.6h11.24V152.08l10.29-2.5v16h15.6v8.74h-15.6V203c0,5.41,2.19,7.39,7.8,7.39a20.57,20.57,0,0,0,7.6-1.25v8.73a34.32,34.32,0,0,1-9.88,1.56c-10.3,0-15.81-4.88-15.81-14Z"/><path d="M410.17,219.47c-15.6,0-27.77-12-27.77-27.45,0-15.29,11.65-27.25,26.52-27.25,14.57,0,25.59,12.06,25.59,27.66v3H392.7a17.86,17.86,0,0,0,17.89,15.18A20.51,20.51,0,0,0,424,206l6.66,6.56A31.59,31.59,0,0,1,410.17,219.47ZM392.8,187.65h31.41c-1.56-8.11-7.8-14.15-15.49-14.15C400.71,173.5,394.36,179.22,392.8,187.65Z"/><path d="M454.79,218.54h-10.4v-72.8l10.4-2.29Z"/><path d="M477.46,218.54h-10.4v-72.8l10.4-2.29Z"/><path d="M488.58,150.62a6.39,6.39,0,0,1,6.35-6.44,6.45,6.45,0,1,1,0,12.89A6.39,6.39,0,0,1,488.58,150.62Zm11.55,67.92h-10.4V165.6h10.4Z"/><path d="M519.26,174.34H508V165.6h11.23V152.08l10.3-2.5v16h15.6v8.74h-15.6V203c0,5.41,2.18,7.39,7.8,7.39a20.55,20.55,0,0,0,7.59-1.25v8.73a34.32,34.32,0,0,1-9.88,1.56c-10.29,0-15.81-4.88-15.81-14Z"/><path d="M577.09,219.47c-15.6,0-27.77-12-27.77-27.45,0-15.29,11.65-27.25,26.52-27.25,14.56,0,25.58,12.06,25.58,27.66v3h-41.8a17.84,17.84,0,0,0,17.88,15.18A20.56,20.56,0,0,0,590.92,206l6.66,6.56A31.61,31.61,0,0,1,577.09,219.47Zm-17.37-31.82h31.41c-1.56-8.11-7.8-14.15-15.5-14.15C567.62,173.5,561.28,179.22,559.72,187.65Z"/><path class="cls-1" d="M128,84c12.51,0,30.61-2.58,30.61-17.46a14,14,0,0,0-.31-3.42l-7.45-32.36c-1.72-7.12-3.23-10.35-15.73-16.6C125.39,9.19,104.26,1,98,1c-5.82,0-7.55,7.54-14.45,7.54-6.68,0-11.64-5.6-17.89-5.6-6,0-9.91,4.09-12.93,12.5,0,0-8.41,23.72-9.49,27.16A6.43,6.43,0,0,0,43,44.54C43,53.76,79.33,84,128,84m32.55-11.42c1.73,8.19,1.73,9.05,1.73,10.13,0,14-15.74,21.77-36.43,21.77C79,104.47,38.08,77.1,38.08,59a18.45,18.45,0,0,1,1.51-7.33C22.77,52.52,1,55.54,1,74.72,1,106.2,75.59,145,134.65,145c45.28,0,56.7-20.48,56.7-36.65,0-12.72-11-27.16-30.83-35.78"/><path d="M160.52,72.57c1.73,8.19,1.73,9.05,1.73,10.13,0,14-15.74,21.77-36.43,21.77C79,104.47,38.08,77.1,38.08,59a18.45,18.45,0,0,1,1.51-7.33l3.66-9.06A6.43,6.43,0,0,0,43,44.54C43,53.76,79.33,84,128,84c12.51,0,30.61-2.58,30.61-17.46a14,14,0,0,0-.31-3.42Z"/><path d="M580.24,93.3c0,11.89,7.15,17.67,20.19,17.67a52.11,52.11,0,0,0,11.89-1.68V95.51a24.84,24.84,0,0,1-7.68,1.16c-5.37,0-7.36-1.68-7.36-6.73V68.8h15.56V54.6H597.28v-18l-17,3.68V54.6H569V68.8h11.25Zm-53,.32c0-3.68,3.69-5.47,9.26-5.47a43.12,43.12,0,0,1,10.1,1.26v7.15A21.51,21.51,0,0,1,536,99.19c-5.46,0-8.73-2.1-8.73-5.57m5.2,17.56c6,0,10.84-1.26,15.36-4.31v3.37h16.82V74.58c0-13.56-9.14-21-24.39-21-8.52,0-16.94,2-26,6.1l6.1,12.52c6.52-2.74,12-4.42,16.83-4.42,7,0,10.62,2.73,10.62,8.31v2.73a49.53,49.53,0,0,0-12.62-1.58c-14.31,0-22.93,6-22.93,16.73,0,9.78,7.78,17.24,20.19,17.24m-92.44-.94h18.09V81.42h30.29v28.82h18.09V36.62H488.43V64.91H458.14V36.62H440.05ZM371.12,82.37c0-8,6.31-14.1,14.62-14.1a17.22,17.22,0,0,1,11.78,4.32V92a16.36,16.36,0,0,1-11.78,4.42c-8.2,0-14.62-6.1-14.62-14.09m26.61,27.87h16.83V32.94l-17,3.68V57.55a28.3,28.3,0,0,0-14.2-3.68c-16.19,0-28.92,12.51-28.92,28.5A28.25,28.25,0,0,0,382.8,111a25.12,25.12,0,0,0,14.93-4.83Zm-77.19-42.7c5.36,0,9.88,3.47,11.67,8.83H309c1.68-5.57,5.89-8.83,11.57-8.83M291.83,82.47c0,16.2,13.25,28.82,30.28,28.82,9.36,0,16.2-2.53,23.25-8.42l-11.26-10c-2.63,2.74-6.52,4.21-11.14,4.21a14.39,14.39,0,0,1-13.68-8.83h39.65V84.05c0-17.67-11.88-30.39-28.08-30.39a28.57,28.57,0,0,0-29,28.81M262.49,52.08c6,0,9.36,3.78,9.36,8.31s-3.37,8.31-9.36,8.31H244.61V52.08Zm-36,58.16h18.09V83.42h13.77l13.89,26.82h20.19l-16.2-29.45a22.27,22.27,0,0,0,13.88-20.72c0-13.25-10.41-23.45-26-23.45H226.52Z"/></svg>