<?xml version="1.0" encoding="utf-8"?>
<!-- Generator: Adobe Illustrator 23.0.1, SVG Export Plug-In . SVG Version: 6.00 Build 0)  -->
<svg version="1.1" id="Layer_1" xmlns="http://www.w3.org/2000/svg" xmlns:xlink="http://www.w3.org/1999/xlink" x="0px" y="0px"
	 viewBox="0 0 1500 744.5" style="enable-background:new 0 0 1500 744.5;" xml:space="preserve">
<style type="text/css">
	.st0{fill-rule:evenodd;clip-rule:evenodd;fill:#1A1A1A;}
	.st1{fill:#090A0A;}
</style>
<title>BG</title>
<desc>Created with Sketch.</desc>
<g id="Background-Downstream">
	<g id="Login-Regular---Full-Feature">
		<g id="BG">
			<rect id="Rectangle" class="st0" width="1500" height="744.5"/>
			<g id="Red-Hat-Hat-RGB-grey" transform="translate(235.000000, 13.000000)">
				<path id="Shape" class="st1" d="M475.2,384.7c79.8,0.1,195.3-16.3,195.5-111.4c0-7-0.6-14.6-1.8-21.8L621.9,44.7
					c-10.7-45.3-20.3-66.5-100-106.1c-61.8-32.1-196.4-84-236.6-84.1c-37.7-0.1-48.6,47.8-92.6,47.8c-42.8-0.1-74-35.9-114.2-36
					c-38.3-0.1-63.2,26-82.5,79.7c0,0-53.8,151.3-61,173.5c-1.3,3.9-1.3,8.3-1.3,12.1C-66.9,190.4,164.5,383.6,475.2,384.7
					 M682.8,312.4c10.8,52.4,10.8,58.1,10.8,64.6C693.4,466.3,593.1,516,461,515.7C162.4,515.2-98.3,339.8-98.1,224.3
					c0-16,3.3-31.9,9.7-46.6c-107.2,4.9-246.4,23.9-246.6,146.4c-0.3,201.1,475.3,449.6,851.8,450.2
					c289.1,0.5,362-130.3,362.2-233.7C879.1,459.5,809,367.5,682.8,312.4"/>
			</g>
		</g>
	</g>
</g>
</svg>
