<?xml version="1.0" encoding="UTF-8" standalone="no"?>
<svg
   xmlns:dc="http://purl.org/dc/elements/1.1/"
   xmlns:cc="http://creativecommons.org/ns#"
   xmlns:rdf="http://www.w3.org/1999/02/22-rdf-syntax-ns#"
   xmlns:svg="http://www.w3.org/2000/svg"
   xmlns="http://www.w3.org/2000/svg"
   xmlns:sodipodi="http://sodipodi.sourceforge.net/DTD/sodipodi-0.dtd"
   xmlns:inkscape="http://www.inkscape.org/namespaces/inkscape"
   inkscape:version="1.0 (4035a4f, 2020-05-01)"
   sodipodi:docname="ansible.svg"
   id="svg1459"
   version="1.1"
   viewBox="0 0 40 56"
   height="56px"
   width="40px">
  <metadata
     id="metadata1465">
    <rdf:RDF>
      <cc:Work
         rdf:about="">
        <dc:format>image/svg+xml</dc:format>
        <dc:type
           rdf:resource="http://purl.org/dc/dcmitype/StillImage" />
      </cc:Work>
    </rdf:RDF>
  </metadata>
  <defs
     id="defs1463" />
  <sodipodi:namedview
     inkscape:current-layer="svg1459"
     inkscape:window-maximized="0"
     inkscape:window-y="101"
     inkscape:window-x="74"
     inkscape:cy="28"
     inkscape:cx="18.921857"
     inkscape:zoom="7.8839286"
     showgrid="false"
     id="namedview1461"
     inkscape:window-height="856"
     inkscape:window-width="1820"
     inkscape:pageshadow="2"
     inkscape:pageopacity="0"
     guidetolerance="10"
     gridtolerance="10"
     objecttolerance="10"
     borderopacity="1"
     bordercolor="#666666"
     pagecolor="#ffffff" />
  <!-- Generator: Sketch 63.1 (92452) - https://sketch.com -->
  <title
     id="title1442">Automation-icon</title>
  <desc
     id="desc1444">Created with Sketch.</desc>
  <g
     transform="matrix(0.87287214,0,0,0.93093993,3.0441677,1.9302288)"
     fill-rule="evenodd"
     fill="none"
     stroke-width="1"
     stroke="none"
     id="Post-summit-dashboard,-August-19">
    <g
       fill-rule="nonzero"
       fill="#ee0000"
       transform="translate(-974,-220)"
       id="RHCS-Landing-Icons-2">
      <g
         transform="translate(974,220)"
         id="Automation-icon">
        <path
           id="Shape"
           d="M 14.6,0.4 H 1.6 C 0.7,0.4 0,1.2 0,2.1 c 0,0 0,0 0,0 v 13 c 0,0.9 0.7,1.6 1.6,1.6 h 13 c 0.9,0 1.6,-0.7 1.6,-1.6 v -13 c 0,-0.9 -0.7,-1.7 -1.6,-1.7 0,0 0,0 0,0 z M 13,13.4 H 3.3 V 3.7 H 13 Z" />
        <path
           id="path1447"
           d="M 14.6,19.9 H 1.6 C 0.7,19.9 0,20.6 0,21.5 v 13 c 0,0.9 0.7,1.6 1.6,1.6 h 13 c 0.9,0 1.6,-0.7 1.6,-1.6 v -13 c 0,-0.9 -0.7,-1.6 -1.6,-1.6 0,0 0,0 0,0 z M 13,32.8 H 3.3 V 23.1 H 13 Z" />
        <path
           id="Path"
           d="m 1.6,39.3 h 13 c 0.9,0 1.6,0.7 1.6,1.6 v 13 c 0,0.9 -0.7,1.6 -1.6,1.6 H 1.6 C 0.7,55.5 0,54.8 0,53.9 V 41 c 0,-0.9 0.7,-1.7 1.6,-1.7 z" />
        <path
           id="path1450"
           d="m 31.9,39.4 c -0.9,0 -1.6,0.7 -1.6,1.6 0,2.7 -2.1,4.8 -4.8,4.8 0,0 0,0 -0.1,0 h -0.5 l 1.6,-1.6 c 0.6,-0.7 0.6,-1.7 -0.1,-2.3 -0.6,-0.6 -1.6,-0.6 -2.2,0 l -4.3,4.3 c -0.1,0.1 -0.2,0.3 -0.3,0.5 0,0.1 0,0.1 0,0.2 0,0.1 0,0.3 0,0.4 0,0 0,0 0,0.2 0,0.2 0,0.3 0,0.5 v 0 0 c 0.1,0.2 0.2,0.3 0.3,0.5 v 0 l 4.3,4.3 c 0.6,0.6 1.7,0.6 2.3,0 0.6,-0.6 0.6,-1.7 0,-2.3 L 24.9,49 h 0.5 c 4.4,0 8.1,-3.5 8.1,-8 v 0 c 0,-0.9 -0.7,-1.6 -1.6,-1.6 0,0 0,0 0,0 z" />
        <path
           id="path1452"
           d="m 21.1,10.1 h 4.3 c 2.7,0 4.8,2.1 4.9,4.8 0,0 0,0.1 0,0.1 0,0.9 0.7,1.6 1.6,1.6 0,0 0,0 0,0 0.9,0 1.6,-0.7 1.6,-1.6 0,-4.5 -3.6,-8.1 -8,-8.1 0,0 -0.1,0 -0.1,0 h -4.3 c -0.9,0 -1.6,0.7 -1.6,1.6 0,0.9 0.7,1.6 1.6,1.6 z" />
        <path
           id="path1454"
           d="M 38.4,26.4 H 37.6 C 37.5,26 37.3,25.5 37.1,25.1 l 0.6,-0.6 c 0.6,-0.7 0.6,-1.7 -0.1,-2.3 -0.6,-0.6 -1.6,-0.6 -2.2,0 l -0.6,0.6 C 34.4,22.6 34,22.4 33.5,22.3 v -0.8 c 0,-0.9 -0.7,-1.6 -1.6,-1.6 -0.9,0 -1.6,0.7 -1.6,1.6 v 0.8 c -0.4,0.1 -0.9,0.3 -1.3,0.5 l -0.6,-0.6 c -0.6,-0.6 -1.7,-0.6 -2.3,0 -0.6,0.6 -0.6,1.6 0,2.3 0,0 0,0 0,0 l 0.6,0.6 c -0.2,0.4 -0.4,0.8 -0.5,1.3 h -0.8 c -0.9,0 -1.6,0.7 -1.6,1.6 0,0.9 0.7,1.6 1.6,1.6 h 0.8 c 0.1,0.4 0.3,0.9 0.5,1.3 l -0.6,0.6 c -0.6,0.6 -0.6,1.6 0,2.3 0,0 0,0 0,0 0.3,0.3 0.7,0.5 1.1,0.5 0.4,0 0.8,-0.2 1.1,-0.5 l 0.6,-0.6 c 0.4,0.2 0.8,0.4 1.3,0.5 v 0.8 c 0,0.9 0.7,1.6 1.6,1.6 0.9,0 1.6,-0.7 1.6,-1.6 v -0.8 c 0.4,-0.1 0.9,-0.3 1.3,-0.5 l 0.6,0.6 c 0.6,0.6 1.7,0.6 2.3,0 0.6,-0.6 0.6,-1.7 0,-2.3 L 37,30.9 c 0.2,-0.4 0.4,-0.8 0.5,-1.3 h 0.8 c 0.9,0 1.6,-0.7 1.6,-1.6 0.1,-0.9 -0.6,-1.6 -1.5,-1.6 z m -6.5,4.3 c -1.5,0 -2.7,-1.2 -2.7,-2.7 0,-1.5 1.2,-2.7 2.7,-2.7 1.5,0 2.7,1.2 2.7,2.7 0,0 0,0 0,0 0,1.5 -1.2,2.7 -2.7,2.7 z" />
      </g>
    </g>
  </g>
</svg>
