<?xml version="1.0" encoding="UTF-8" standalone="no"?>
<svg
   xmlns:dc="http://purl.org/dc/elements/1.1/"
   xmlns:cc="http://creativecommons.org/ns#"
   xmlns:rdf="http://www.w3.org/1999/02/22-rdf-syntax-ns#"
   xmlns:svg="http://www.w3.org/2000/svg"
   xmlns="http://www.w3.org/2000/svg"
   xmlns:sodipodi="http://sodipodi.sourceforge.net/DTD/sodipodi-0.dtd"
   xmlns:inkscape="http://www.inkscape.org/namespaces/inkscape"
   inkscape:version="1.0 (4035a4f, 2020-05-01)"
   height="100"
   width="100"
   sodipodi:docname="cost-management.svg"
   xml:space="preserve"
   viewBox="0 0 100 100"
   y="0px"
   x="0px"
   id="Layer_1"
   version="1.1"><metadata
   id="metadata854"><rdf:RDF><cc:Work
       rdf:about=""><dc:format>image/svg+xml</dc:format><dc:type
         rdf:resource="http://purl.org/dc/dcmitype/StillImage" /><dc:title>Cost-icon</dc:title></cc:Work></rdf:RDF></metadata><defs
   id="defs852" /><sodipodi:namedview
   inkscape:current-layer="Layer_1"
   inkscape:window-maximized="0"
   inkscape:window-y="101"
   inkscape:window-x="88"
   inkscape:cy="47.222243"
   inkscape:cx="42.551283"
   inkscape:zoom="7.0499601"
   showgrid="false"
   id="namedview850"
   inkscape:window-height="902"
   inkscape:window-width="1784"
   inkscape:pageshadow="2"
   inkscape:pageopacity="0"
   guidetolerance="10"
   gridtolerance="10"
   objecttolerance="10"
   borderopacity="1"
   bordercolor="#666666"
   pagecolor="#ffffff" />
<style
   id="style833"
   type="text/css">
	.st0{fill:#EE0000;}
</style>
<title
   id="title835">Cost-icon</title>
<desc
   id="desc837">Created with Sketch.</desc>
<g
   transform="matrix(1.8075834,0,0,1.8276777,-9.0221545,5.0116493)"
   id="g843">
	<path
   id="path839"
   d="M 52,16.799999 C 51.299999,7.7999992 43.799999,0.7999992 34.599998,0.7999992 c -5.899999,0 -11.399999,3 -14.6,8 -0.4,0 -0.799999,-0.1000004 -1.299999,-0.1000004 -7.4,0 -13.5000001,6.0000002 -13.5000001,13.5000002 0,7.5 6.0000001,13.499998 13.5000001,13.499998 h 3.5 c 0.799999,0 1.5,-0.700001 1.5,-1.5 0,-0.799999 -0.700001,-1.5 -1.5,-1.5 h -3.5 c -5.8,0 -10.3999997,-4.700001 -10.3999997,-10.4 0,-5.699999 4.6999997,-10.399999 10.3999997,-10.399999 0.6,0 1.200001,0.1 1.799999,0.199999 0.6,0.100001 1.299999,-0.199999 1.6,-0.8 2.600001,-4.4999997 7.4,-7.2999999 12.5,-7.2999999 C 42.5,3.9999971 49,10.499997 49,18.399998 c 0,0.799999 0.700001,1.5 1.5,1.5 3.5,0 6.400002,2.899999 6.400002,6.399999 0,3.5 -2.900002,6.4 -6.400002,6.4 -0.799999,0 -1.5,0.700001 -1.5,1.5 0,0.799999 0.700001,1.5 1.5,1.5 5.200001,0 9.5,-4.299999 9.5,-9.5 C 60,21.5 56.5,17.5 52,16.799999 Z"
   class="st0" />
	<path
   id="path841"
   d="m 45.099998,39 c 1.599999,-1.900002 2.5,-4.400002 2.5,-7 0,-6.200001 -5,-11.200001 -11.2,-11.200001 -6.200001,0 -11.200001,5 -11.200001,11.200001 0,6.200001 5,11.200001 11.200001,11.200001 2.400001,0 4.7,-0.799999 6.5,-2.099999 l 6.799999,6.599999 c 0.299999,0.299999 0.700001,0.400001 1.099998,0.400001 0.400002,0 0.8,-0.2 1.099999,-0.5 0.599998,-0.599998 0.599998,-1.599998 0,-2.2 z M 28.299999,32 C 28.299999,27.5 32,23.799999 36.5,23.799999 41,23.799999 44.700001,27.5 44.700001,32 44.700001,36.5 41,40.200001 36.5,40.200001 32,40.200001 28.299999,36.5 28.299999,32 Z"
   class="st0" />
</g>
<g
   transform="matrix(1.8075834,0,0,1.8276777,-8.738465,4.0187359)"
   id="g847">
	<path
   id="path845"
   d="m 38.12001,31.503498 c 0.475041,0.147154 0.880951,0.400971 1.21674,0.761448 0.335789,0.360481 0.557011,0.782188 0.662685,1.265133 0.106663,0.482941 0.07802,0.970821 -0.08592,1.461666 -0.196533,0.540222 -0.532322,0.970821 -1.007362,1.289822 -0.475041,0.319 -1.006378,0.486892 -1.59697,0.503681 v 1.179211 c 0,0.114563 -0.03654,0.208385 -0.109627,0.282455 -0.07407,0.07407 -0.167892,0.110615 -0.283443,0.110615 h -0.78614 c -0.114563,0 -0.208386,-0.03654 -0.282456,-0.110615 -0.07308,-0.07407 -0.110615,-0.167893 -0.110615,-0.282455 v -1.179211 c -0.786136,0 -1.498207,-0.245915 -2.136696,-0.736759 -0.08197,-0.08197 -0.131355,-0.180733 -0.147647,-0.295296 -0.0163,-0.114563 0.02469,-0.221226 0.122955,-0.318996 l 0.835026,-0.835522 c 0.06617,-0.04938 0.143203,-0.08197 0.234066,-0.09777 0.08987,-0.01679 0.175792,0.0079 0.257766,0.07309 0.245915,0.163944 0.523434,0.245915 0.83453,0.245915 h 1.646351 c 0.196537,0 0.36443,-0.06913 0.503681,-0.208386 0.139256,-0.139255 0.20839,-0.316036 0.20839,-0.528374 0,-0.147155 -0.04839,-0.286407 -0.147156,-0.417759 -0.09777,-0.131355 -0.221226,-0.221225 -0.368378,-0.270606 l -2.530266,-0.73676 c -0.55701,-0.163944 -1.023166,-0.458252 -1.400432,-0.884899 -0.376774,-0.425661 -0.597508,-0.916506 -0.663182,-1.473518 -0.03259,-0.524422 0.06567,-1.011315 0.294804,-1.461666 0.229126,-0.450352 0.557011,-0.810829 0.982674,-1.081436 0.425659,-0.269618 0.900699,-0.404921 1.425125,-0.404921 h 0.04839 v -1.179209 c 0,-0.114563 0.03753,-0.208387 0.110615,-0.282457 0.07407,-0.07407 0.167892,-0.110613 0.282455,-0.110613 h 0.786141 c 0.115551,0 0.209373,0.03654 0.283443,0.110613 0.07309,0.07407 0.109627,0.167894 0.109627,0.282457 v 1.179209 c 0.78614,0 1.491295,0.245914 2.113491,0.736759 0.09777,0.08197 0.155056,0.180733 0.171845,0.295296 0.0158,0.114563 -0.02469,0.212335 -0.122464,0.294308 l -0.835521,0.86021 c -0.06617,0.04938 -0.143204,0.08197 -0.234062,0.09777 -0.08987,0.01679 -0.175797,0 -0.257767,-0.04839 -0.24493,-0.180732 -0.523438,-0.270605 -0.835522,-0.270605 h -1.645363 c -0.196533,0 -0.364429,0.06913 -0.503681,0.208386 -0.139255,0.139253 -0.209373,0.316036 -0.209373,0.528371 0,0.147156 0.04938,0.286408 0.14814,0.417761 0.09777,0.131352 0.221225,0.221226 0.368381,0.270605 z"
   class="st0" />
</g>
</svg>
