<?xml version="1.0" encoding="UTF-8"?>
<svg width="45px" height="56px" viewBox="0 0 45 56" version="1.1" xmlns="http://www.w3.org/2000/svg" xmlns:xlink="http://www.w3.org/1999/xlink">
    <!-- Generator: Sketch 63.1 (92452) - https://sketch.com -->
    <title>Migration-icon</title>
    <desc>Created with Sketch.</desc>
    <g id="Post-summit-dashboard,-August-19" stroke="none" stroke-width="1" fill="none" fill-rule="evenodd">
        <g id="RHCS-Landing-Icons-2" transform="translate(-603.000000, -618.000000)" fill="#EE0000" fill-rule="nonzero">
            <g id="Migration-icon" transform="translate(603.000000, 618.000000)">
                <path d="M37.6,37.2 L30,45.3 L27,42.5 C26.5,42 25.7,42 25.2,42.6 C24.7,43.1 24.7,43.9 25.2,44.4 L29.1,48.1 C29.6,48.6 30.4,48.6 30.9,48.1 L39.5,39.1 C40,38.6 40,37.8 39.4,37.3 C38.9,36.7 38.1,36.7 37.6,37.2" id="Fill-5"></path>
                <path d="M44.2,13.9 C44.1,9.5 40.5,5.9 36.1,5.9 L20.7,5.9 C20,5.9 19.4,6.5 19.4,7.2 C19.4,7.9 20,8.5 20.7,8.5 L36.1,8.5 C36.1,8.5 36.2,8.5 36.2,8.5 C39.3,8.5 41.8,11 41.8,14.1 L41.8,14.4 C41.8,17.5 39.4,19.9 36.4,20 L36.4,20 L37.7,18.7 C38.2,18.2 38.2,17.3 37.6,16.8 C37.1,16.3 36.3,16.3 35.8,16.8 L32.2,20.4 C32.1,20.5 32,20.7 31.9,20.8 C31.8,21.1 31.8,21.5 31.9,21.8 C32,21.9 32.1,22.1 32.2,22.2 L35.8,25.8 C36.3,26.3 37.2,26.3 37.7,25.7 C38.2,25.2 38.2,24.4 37.7,23.9 L36.4,22.6 L36.4,22.6 C40.7,22.5 44.1,19 44.3,14.6 L44.3,14.6 L44.3,14.4 L44.3,14.1 L44.2,13.9 L44.2,13.9 Z" id="Path"></path>
                <path d="M26.1,20 L9,20 C4.6,20 1,23.6 0.9,28 L0.9,28 L0.9,28.2 L0.9,28.5 L0.9,28.7 L0.9,28.7 C1,33.1 4.5,36.5 8.8,36.7 L8.8,36.7 L7.5,38 C7,38.5 7,39.3 7.5,39.8 C8,40.3 8.8,40.4 9.4,39.9 L13,36.3 C13.1,36.2 13.2,36 13.3,35.9 C13.4,35.6 13.4,35.2 13.3,34.9 C13.2,34.7 13.1,34.6 13,34.5 L9.3,31 C8.8,30.5 8,30.5 7.5,31 C7,31.5 6.9,32.4 7.4,32.9 L8.7,34.2 L8.7,34.2 C5.7,34.1 3.3,31.6 3.3,28.6 L3.3,28.3 C3.3,25.2 5.8,22.7 8.9,22.7 C8.9,22.7 9,22.7 9,22.7 L26.1,22.7 C26.8,22.7 27.4,22.1 27.4,21.4 C27.4,20.6 26.9,20 26.1,20 Z" id="Path"></path>
                <path d="M15.6,0.5 L5.7,0.5 C5,0.5 4.5,1.1 4.5,1.8 L4.5,12.4 C4.5,13.1 5.1,13.7 5.7,13.7 L15.6,13.7 C16.3,13.7 16.8,13.1 16.8,12.4 L16.8,1.9 C16.8,1.2 16.3,0.6 15.6,0.5 Z M14.3,11.2 L6.9,11.2 L6.9,3.2 L14.3,3.2 L14.3,11.2 Z" id="Shape"></path>
                <path d="M43.9,29.8 L20.7,29.8 C20,29.8 19.4,30.3 19.4,31 L19.4,31 L19.4,54.1 C19.4,54.8 19.9,55.4 20.6,55.4 L20.6,55.4 L43.7,55.4 C44.4,55.4 45,54.8 45,54.1 L45,31 C45.1,30.3 44.6,29.8 43.9,29.8 Z M42.6,52.9 L21.9,52.9 L21.9,32.3 L42.6,32.3 L42.6,52.9 L42.6,52.9 Z" id="Shape"></path>
            </g>
        </g>
    </g>
</svg>