<?xml version="1.0" encoding="UTF-8"?>
<svg width="42px" height="41px" viewBox="0 0 42 41" version="1.1" xmlns="http://www.w3.org/2000/svg" xmlns:xlink="http://www.w3.org/1999/xlink">
    <!-- Generator: Sketch 63.1 (92452) - https://sketch.com -->
    <title>Icon-Red_Hat-Cluster-B-Red-RGB</title>
    <desc>Created with Sketch.</desc>
    <g id="Post-summit-dashboard,-August-19" stroke="none" stroke-width="1" fill="none" fill-rule="evenodd">
        <g id="RHCS-Landing" transform="translate(-595.000000, -230.000000)" fill="#EE0000" fill-rule="nonzero">
            <g id="Icon-Red_Hat-Cluster-B-Red-RGB" transform="translate(595.000000, 229.500000)">
                <path d="M33.0620947,22.2530771 C33.6747415,24.3682037 35.7871108,25.7174194 38.0120912,25.4147462 C40.2370716,25.112073 41.8933782,23.2501888 41.8933782,21.0517213 C41.8933782,18.8532538 40.2370716,16.9913697 38.0120912,16.6886965 C35.7871108,16.3860232 33.6747415,17.7352389 33.0620947,19.8503656 L27.0062654,19.8503656 C26.8507639,19.0946219 26.5448949,18.3761909 26.1060746,17.7359794 L35.1898185,8.86196477 C35.8522576,9.23519379 36.6022885,9.43388036 37.3666436,9.43861554 C39.4349653,9.46810403 41.2652144,8.13321604 41.8275854,6.18503787 C42.3899563,4.2368597 41.5439724,2.16203414 39.7656338,1.12797975 C37.9872951,0.0939253584 35.7208197,0.358942502 34.2414596,1.77391699 C32.7620994,3.18889147 32.4393894,5.40037147 33.4549052,7.16404862 L24.3711613,16.0380632 C23.7235452,15.6108785 22.9941568,15.3166262 22.2270704,15.1730871 L22.2270704,9.24639862 C24.388285,8.64681657 25.7668997,6.57949359 25.4576313,4.40196098 C25.1483629,2.22442837 23.2459089,0.603442653 20.9995374,0.603442653 C18.7531659,0.603442653 16.8507119,2.22442837 16.5414435,4.40196098 C16.2321751,6.57949359 17.6107898,8.64681657 19.7720044,9.24639862 L19.7720044,15.1730871 C19.0007411,15.3195737 18.2665761,15.6135091 17.6115464,16.0380632 L8.54416957,7.16404862 C9.6653236,5.21802716 9.14589507,2.76068876 7.32783221,1.40973917 C5.50976934,0.0587895853 2.95164719,0.229289653 1.33751907,1.80899642 C-0.276609047,3.38870318 -0.450824262,5.89227326 0.929562128,7.67156585 C2.30994852,9.45085844 4.82083161,9.95921014 6.80925632,8.86196477 L15.8766332,17.7519975 C15.4401402,18.3858031 15.1394763,19.0996373 14.9928094,19.8503656 L8.93698012,19.8503656 C8.32433336,17.7352389 6.21196401,16.3860232 3.98698359,16.6886965 C1.76200317,16.9913697 0.105696639,18.8532538 0.105696639,21.0517213 C0.105696639,23.2501888 1.76200317,25.112073 3.98698359,25.4147462 C6.21196401,25.7174194 8.32433336,24.3682037 8.93698012,22.2530771 L14.9928094,22.2530771 C15.1394763,23.0038054 15.4401402,23.7176395 15.8766332,24.3514452 L6.80925632,33.2414779 C5.03673431,32.2878318 2.83129381,32.6134736 1.42515051,34.0364619 C0.0190072148,35.4594502 -0.239768487,37.6275448 0.793405625,39.3293959 C1.82657974,41.0312469 3.89595638,41.8455858 5.84534098,41.3174281 C7.79472557,40.7892704 9.14157621,39.0493538 9.1333854,37.0697983 C9.12854704,36.3217431 8.92553115,35.5877066 8.54416957,34.939394 L17.6115464,26.0493613 C18.2620727,26.4854106 18.9975743,26.7853343 19.7720044,26.9303556 L19.7720044,32.857044 C17.6107898,33.4566261 16.2321751,35.5239491 16.5414435,37.7014817 C16.8507119,39.8790143 18.7531659,41.5 20.9995374,41.5 C23.2459089,41.5 25.1483629,39.8790143 25.4576313,37.7014817 C25.7668997,35.5239491 24.388285,33.4566261 22.2270704,32.857044 L22.2270704,26.9303556 C22.9973295,26.7882066 23.7280729,26.4879485 24.3711613,26.0493613 L33.4549052,34.939394 C32.4804795,36.6741169 32.8132169,38.8325263 34.2672117,40.2086835 C35.7212065,41.5848408 37.9365433,41.8380981 39.6754772,40.8269564 C41.4144111,39.8158148 42.2464942,37.7905677 41.7068281,35.8827538 C41.1671619,33.97494 39.3893331,32.656811 37.3666436,32.6648271 C36.6022885,32.6695623 35.8522576,32.8682489 35.1898185,33.2414779 L26.1224417,24.3514452 C26.5589346,23.7176395 26.8595986,23.0038054 27.0062654,22.2530771 L33.0620947,22.2530771 Z" id="Path"></path>
            </g>
        </g>
    </g>
</svg>