<?xml version="1.0" encoding="utf-8"?>
<!-- Generator: Adobe Illustrator 23.0.1, SVG Export Plug-In . SVG Version: 6.00 Build 0)  -->
<svg version="1.1" id="insights-logo" xmlns="http://www.w3.org/2000/svg" xmlns:xlink="http://www.w3.org/1999/xlink" x="0px"
	 y="0px" viewBox="0 0 226.9 43.5" style="enable-background:new 0 0 226.9 43.5;" xml:space="preserve">
<style type="text/css">
	.st0{fill:#FFFFFF;}
</style>
<title>Red Hat Cloud Services Logo</title>
<path class="st0" d="M8.1,14.8l-2.4-5H4v5H0V0.1h6.6c0.8,0,1.6,0.1,2.4,0.3c0.7,0.2,1.3,0.4,1.8,0.9c0.5,0.4,0.9,0.9,1.1,1.5
	c0.3,0.7,0.4,1.5,0.4,2.2c0,1-0.2,1.9-0.7,2.7c-0.5,0.7-1.1,1.2-2,1.6l3,5.6H8.1z M7.9,3.9C7.5,3.5,7,3.4,6.5,3.4H4v3.2h2.5
	c0.4,0.1,1-0.1,1.4-0.4C8.2,5.9,8.3,5.4,8.3,5C8.3,4.6,8.2,4.2,7.9,3.9z"/>
<path class="st0" d="M15.7,14.8V0.1H27v3.4h-7.3v2h4.4v3.3h-4.4v2.5h7.4v3.4H15.7L15.7,14.8z"/>
<path class="st0" d="M42.6,10.9c-0.3,0.9-0.8,1.7-1.5,2.3c-0.8,0.6-1.7,1.1-2.5,1.3c-1.1,0.3-2.3,0.4-3.4,0.4h-4.8V0.1h5.2
	c1.1,0,2.1,0.1,3.2,0.4C39.6,0.6,40.3,1,41,1.7s1.2,1.4,1.5,2.3c0.4,1.1,0.6,2.3,0.5,3.5C43.2,8.6,43,9.7,42.6,10.9z M38.8,5.7
	c-0.1-0.4-0.3-0.9-0.6-1.2c-0.3-0.4-0.6-0.5-1.1-0.7c-0.5-0.2-1.1-0.2-1.6-0.2h-1.1v7.8h0.9c0.5,0,1.1-0.1,1.6-0.2
	c0.4-0.1,0.8-0.4,1.1-0.6c0.4-0.4,0.5-0.8,0.6-1.2c0.2-0.6,0.2-1.2,0.2-1.8C38.9,6.8,38.9,6.3,38.8,5.7L38.8,5.7z"/>
<path class="st0" d="M62.5,14.8V9H58v5.8h-4.2V0.1H58v5.4h4.6V0.1h4.2v14.7H62.5z"/>
<path class="st0" d="M79.8,14.8L79,12.2h-4.4l-0.8,2.6h-4.4l5.4-14.7h4.1l5.4,14.7H79.8L79.8,14.8z M77.8,8
	c-0.1-0.4-0.3-0.9-0.4-1.2l-0.3-0.9C77.1,5.6,77,5.3,77,5.1c-0.1-0.3-0.1-0.4-0.2-0.7c0,0.3-0.1,0.5-0.2,0.7
	c-0.1,0.2-0.1,0.5-0.2,0.8l-0.3,1l-0.4,1.2l-0.3,1h2.5L77.8,8z"/>
<path class="st0" d="M92.6,3.7v11.1h-4.1V3.7h-4.1V0.1h12.4v3.6H92.6z"/>
<path class="st0" d="M102.2,2.6c-0.2,0.4-0.5,0.8-1,1c-0.5,0.2-1.1,0.2-1.5,0c-0.4-0.2-0.8-0.5-1-1c-0.2-0.5-0.2-1.1,0-1.5
	s0.5-0.9,1-1.1c0.5-0.2,1.1-0.2,1.5,0s0.8,0.5,1,1C102.4,1.6,102.4,2.2,102.2,2.6z M101.9,1.3c-0.1-0.2-0.2-0.4-0.4-0.5
	c-0.2-0.2-0.4-0.3-0.5-0.4c-0.4-0.2-0.9-0.2-1.2,0c-0.4,0.2-0.7,0.4-0.9,0.9s-0.2,0.9,0,1.2c0.2,0.4,0.4,0.7,0.9,0.9s0.9,0.2,1.2,0
	c0.2-0.1,0.4-0.2,0.5-0.4c0.2-0.2,0.3-0.4,0.4-0.5C102.1,2.2,102.1,1.7,101.9,1.3L101.9,1.3z M101.2,1.8C101.1,1.9,101,2,100.9,2
	l0.4,0.9h-0.4l-0.4-0.8h-0.4v0.8h-0.4v-2h0.9c0.1,0,0.2,0,0.3,0S101,1,101,1c0.1,0.1,0.1,0.1,0.2,0.2c0,0.1,0.1,0.2,0.1,0.3
	C101.3,1.6,101.3,1.7,101.2,1.8L101.2,1.8z M100.9,1.2c-0.1-0.1-0.2-0.1-0.3-0.1h-0.5v0.6h0.5c0.1,0,0.2,0,0.3-0.1
	C101,1.6,101,1.4,100.9,1.2L100.9,1.2z"/>
<path class="st0" d="M0,31c0-5.4,2.5-10.3,8.2-10.3c3.6,0,5.1,1.6,6.1,3.2l-1.8,1c-0.9-1.3-2-2.4-4.3-2.4c-4.5,0-6.2,4.5-6.2,8.5
	c0,4.4,1.8,8.5,6.2,8.5c2.4,0,3.7-1,4.6-2.5l1.8,0.7c-0.9,1.8-2.9,3.6-6.4,3.6C2.4,41.3,0,36.2,0,31z"/>
<path class="st0" d="M19.3,21.1h2v18h9.9v1.9H19.3V21.1z"/>
<path class="st0" d="M33.9,31c0-4.9,2.1-10.3,8.2-10.3c6.1,0,8.2,5.4,8.2,10.3s-2.1,10.3-8.2,10.3C36,41.3,33.9,35.9,33.9,31z
	 M48.3,31c0-4.3-1.6-8.5-6.2-8.5c-4.6,0-6.2,4.5-6.2,8.5c0,4.3,1.6,8.5,6.2,8.5C46.7,39.5,48.3,35,48.3,31z"/>
<path class="st0" d="M55.2,33.6V21.1h2v12.5c0,4.7,2.3,5.9,4.8,5.9s4.8-1.2,4.8-5.9V21.1h2v12.5c0,5.5-2.6,7.7-6.8,7.7
	S55.2,39.1,55.2,33.6z"/>
<path class="st0" d="M79.9,21.1c6.7,0,9,5,9,9.9c0,4.6-2,9.9-9.1,9.9h-5.2V21.1H79.9z M86.9,31c0-4.1-1.9-8.2-6.6-8.2h-3.6v16.3H80
	C85.3,39.2,86.9,34.9,86.9,31z"/>
<path class="st0" d="M99.3,37.3l1.9-0.7c0.8,1.7,2.5,2.9,4.8,2.9c2.6,0,4.2-1.3,4.2-3.7c0-2.4-2.2-3.8-4.5-4.6
	c-2.8-1.1-5.8-2.6-5.8-5.9c0-2.5,2.2-4.6,5.9-4.6c2.9,0,5,1.3,5.5,3.2l-1.8,0.6c-0.5-1.1-1.8-2-3.8-2c-2.3,0-3.7,1.1-3.7,2.8
	c0,2.1,2.2,3.1,4.6,4c2.7,1.1,5.7,2.8,5.7,6.5c0,3.5-2.6,5.5-6.3,5.5C102.6,41.3,100.1,39.4,99.3,37.3z"/>
<path class="st0" d="M117.3,21.1h11.3V23h-9.3v6.8h6.3v1.9h-6.3V39h10v1.9h-12V21.1z"/>
<path class="st0" d="M134.3,21.1h7.3c4.7,0,6.1,2.8,6.1,5.5c0,2.4-1.3,4.9-4.9,5.5l4.4,9H145l-4.3-8.9h-4.5v8.9h-2V21.1z
	 M141.6,30.3c3.1,0,4.2-1.9,4.2-3.7c0-1.6-0.9-3.8-4.2-3.8h-5.4v7.4H141.6z"/>
<path class="st0" d="M151.5,21.1h2.1l5,14.9c0.2,0.6,0.4,1.2,0.6,1.8c0.2-0.6,0.4-1.2,0.5-1.8l4.7-14.9h2.1l-6.8,19.9h-1.4
	L151.5,21.1z"/>
<path class="st0" d="M170.7,21.1h2v19.9h-2V21.1z"/>
<path class="st0" d="M177.7,31c0-5.4,2.5-10.3,8.2-10.3c3.6,0,5.1,1.6,6.1,3.2l-1.8,1c-0.9-1.3-2-2.4-4.3-2.4
	c-4.5,0-6.2,4.5-6.2,8.5c0,4.4,1.8,8.5,6.2,8.5c2.4,0,3.7-1,4.6-2.5l1.8,0.7c-0.9,1.8-2.9,3.6-6.4,3.6C180,41.3,177.7,36.2,177.7,31
	z"/>
<path class="st0" d="M197,21.1h11.3V23H199v6.8h6.3v1.9H199V39h10v1.9h-12V21.1z"/>
<path class="st0" d="M212.8,37.3l1.9-0.7c0.8,1.7,2.5,2.9,4.8,2.9c2.6,0,4.2-1.3,4.2-3.7c0-2.4-2.2-3.8-4.5-4.6
	c-2.8-1.1-5.8-2.6-5.8-5.9c0-2.5,2.2-4.6,5.9-4.6c2.9,0,5,1.3,5.5,3.2l-1.8,0.6c-0.5-1.1-1.8-2-3.8-2c-2.3,0-3.7,1.1-3.7,2.8
	c0,2.1,2.2,3.1,4.6,4c2.7,1.1,5.7,2.8,5.7,6.5c0,3.5-2.6,5.5-6.3,5.5C216,41.3,213.6,39.4,212.8,37.3z"/>
</svg>
