<?xml version="1.0" encoding="utf-8"?>
<!-- Generator: Adobe Illustrator 20.1.0, SVG Export Plug-In . SVG Version: 6.00 Build 0)  -->
<svg class="pf-c-brand" fill="white" id="insights-logo" version="1.1" xmlns:xlink="http://www.w3.org/2000/svg" xmlns="http://www.w3.org/2000/svg" x="0px" y="0px" viewBox="0 0 222 16.9" xml:space="preserve" style="
    color: black;
"><title>Red Hat Insights Logo</title><path class="st0" d="M9.2,16.9l-2.7-5.7H4.6v5.7H0V0.1h7.5c0.9,0,1.8,0.1,2.7,0.3c0.8,0.2,1.5,0.5,2.1,1c0.6,0.4,1,1,1.3,1.7  c0.3,0.8,0.5,1.7,0.5,2.5c0,1.1-0.2,2.2-0.8,3.1c-0.6,0.8-1.3,1.4-2.3,1.8l3.4,6.4H9.2z M9,4.4C8.6,4,8,3.9,7.4,3.9H4.6v3.7h2.8  C7.9,7.7,8.5,7.5,9,7.1c0.3-0.4,0.5-0.9,0.5-1.4C9.5,5.3,9.3,4.8,9,4.4z"></path><path class="st0" d="M17.9,16.9V0.1h12.9V4h-8.3v2.3h5v3.8h-5V13h8.4v3.9H17.9L17.9,16.9z"></path><path class="st0" d="M48.6,12.4c-0.3,1-0.9,1.9-1.7,2.6C46,15.7,45,16.2,44,16.5c-1.3,0.3-2.6,0.5-3.9,0.4h-5.5V0.1h5.9  c1.2,0,2.4,0.1,3.6,0.4c1,0.2,1.9,0.7,2.7,1.4c0.8,0.7,1.4,1.6,1.7,2.6c0.4,1.3,0.7,2.6,0.6,4C49.2,9.8,49,11.1,48.6,12.4z  M44.2,6.5c-0.1-0.5-0.3-1-0.7-1.4c-0.3-0.4-0.7-0.6-1.2-0.8c-0.6-0.2-1.2-0.2-1.8-0.2h-1.2V13h1c0.6,0,1.2-0.1,1.8-0.2  c0.5-0.1,0.9-0.4,1.3-0.7c0.4-0.4,0.6-0.9,0.7-1.4c0.2-0.7,0.2-1.4,0.2-2.1C44.4,7.8,44.3,7.2,44.2,6.5L44.2,6.5z"></path><path class="st0" d="M71.3,16.9v-6.6h-5.2v6.6h-4.8V0.1h4.8v6.1h5.2V0.1h4.8v16.8H71.3z"></path><path class="st0" d="M91,16.9l-0.9-3h-5l-0.9,3h-5l6.1-16.8H90l6.1,16.8h-5H91z M88.7,9.1c-0.1-0.5-0.3-1-0.4-1.4l-0.3-1  c-0.1-0.3-0.2-0.6-0.2-0.9c-0.1-0.3-0.1-0.5-0.2-0.8c0,0.3-0.1,0.6-0.2,0.8s-0.1,0.6-0.2,0.9l-0.3,1.1l-0.4,1.4l-0.3,1.1H89  L88.7,9.1z"></path><path class="st0" d="M105.6,4.2v12.7h-4.7V4.2h-4.7V0.1h14.1v4.1H105.6z"></path><path class="st0" d="M116.5,3c-0.2,0.5-0.6,0.9-1.1,1.1c-0.6,0.2-1.2,0.2-1.7,0c-0.5-0.2-0.9-0.6-1.1-1.1c-0.2-0.6-0.2-1.2,0-1.7  c0.2-0.5,0.6-1,1.1-1.2c0.6-0.2,1.2-0.2,1.7,0c0.5,0.2,0.9,0.6,1.1,1.1C116.8,1.8,116.8,2.5,116.5,3z M116.2,1.5  c-0.1-0.2-0.2-0.4-0.4-0.6c-0.2-0.2-0.4-0.3-0.6-0.4c-0.5-0.2-1-0.2-1.4,0c-0.5,0.2-0.8,0.5-1,1c-0.2,0.5-0.2,1,0,1.4  c0.2,0.5,0.5,0.8,1,1c0.5,0.2,1,0.2,1.4,0c0.2-0.1,0.4-0.2,0.6-0.4c0.2-0.2,0.3-0.4,0.4-0.6C116.4,2.5,116.4,1.9,116.2,1.5  L116.2,1.5z M115.4,2.1c-0.1,0.1-0.2,0.2-0.4,0.2l0.5,1H115l-0.5-0.9h-0.4v0.9h-0.4V1h1c0.1,0,0.2,0,0.3,0c0.1,0,0.2,0.1,0.2,0.1  c0.1,0.1,0.1,0.1,0.2,0.2c0,0.1,0.1,0.2,0.1,0.3C115.5,1.8,115.5,2,115.4,2.1L115.4,2.1z M115,1.4c-0.1-0.1-0.2-0.1-0.3-0.1h-0.6V2  h0.6c0.1,0,0.2,0,0.3-0.1C115.1,1.8,115.1,1.6,115,1.4C115,1.4,115,1.4,115,1.4z"></path><g><path class="st0" d="M124.5,16.6V0.2h1.8v16.4H124.5z"></path><path class="st0" d="M140.9,16.6l-7.2-11.2c-0.1-0.1-0.2-0.3-0.3-0.5l-0.3-0.6l-0.3-0.6c-0.1-0.1-0.2-0.3-0.2-0.4v13.3h-1.8V0.2    h1.8l7.1,11.4c0.1,0.1,0.2,0.3,0.3,0.5l0.3,0.6l0.3,0.6c0.1,0.1,0.2,0.3,0.2,0.4V0.2h1.8v16.4H140.9z"></path><path class="st0" d="M156.6,14.1c-0.2,0.6-0.6,1.1-1.1,1.5c-0.5,0.4-1.1,0.8-1.7,1c-0.7,0.2-1.5,0.4-2.3,0.4    c-1.1,0-2.1-0.2-3.1-0.7c-0.9-0.4-1.7-0.9-2.4-1.6l1.2-1.4c0.6,0.6,1.3,1.1,2,1.4c0.7,0.4,1.5,0.5,2.3,0.5c0.9,0.1,1.8-0.2,2.6-0.7    c0.6-0.5,1-1.3,0.9-2.1c0-0.4-0.1-0.7-0.2-1c-0.1-0.3-0.4-0.6-0.7-0.9c-0.4-0.3-0.8-0.6-1.2-0.8c-0.6-0.3-1.2-0.6-1.9-0.8    c-0.8-0.3-1.5-0.6-2.2-0.9c-0.5-0.3-1-0.6-1.5-1c-0.4-0.3-0.6-0.8-0.8-1.2c-0.2-0.5-0.3-1-0.2-1.6c0-0.6,0.1-1.2,0.4-1.8    c0.2-0.5,0.6-0.9,1-1.3c0.5-0.4,1-0.7,1.6-0.8c0.7-0.2,1.4-0.3,2.1-0.3c1,0,1.9,0.1,2.8,0.5c0.8,0.3,1.5,0.8,2.2,1.3l-1.2,1.4    c-0.5-0.5-1.1-0.8-1.8-1.1c-0.7-0.3-1.4-0.4-2.1-0.4c-0.5,0-1,0.1-1.5,0.2c-0.4,0.1-0.7,0.3-1,0.5c-0.2,0.2-0.4,0.4-0.6,0.7    c-0.1,0.3-0.2,0.6-0.2,0.9c0,0.3,0.1,0.6,0.2,1c0.1,0.3,0.3,0.6,0.6,0.8c0.4,0.3,0.8,0.6,1.2,0.8c0.7,0.3,1.3,0.6,2,0.8    c0.8,0.3,1.5,0.6,2.3,1c0.5,0.3,1,0.6,1.5,1.1c0.4,0.4,0.6,0.8,0.8,1.3c0.1,0.5,0.2,1.1,0.2,1.6C156.9,12.9,156.8,13.6,156.6,14.1z    "></path><path class="st0" d="M160.9,16.6V0.2h1.8v16.4H160.9z"></path><path class="st0" d="M178.6,13.1c-0.3,0.8-0.7,1.5-1.3,2.1c-0.5,0.6-1.2,1-2,1.3c-0.8,0.3-1.6,0.4-2.4,0.4c-0.9,0-1.9-0.2-2.7-0.7    c-0.8-0.4-1.5-1-2.1-1.8c-0.6-0.8-1.1-1.7-1.3-2.7c-0.3-1.1-0.5-2.2-0.5-3.3c0-1.1,0.2-2.3,0.5-3.4c0.3-1,0.8-1.9,1.4-2.7    c0.6-0.7,1.3-1.3,2.1-1.8c0.8-0.4,1.8-0.7,2.7-0.7c2.1-0.1,4,0.9,5.2,2.6l-1.5,1.1c-0.4-0.6-1-1.2-1.6-1.6    c-0.7-0.4-1.4-0.5-2.2-0.5c-0.7,0-1.4,0.2-2,0.5c-0.6,0.3-1.1,0.8-1.5,1.4c-0.4,0.7-0.7,1.4-0.9,2.2c-0.3,0.9-0.4,1.8-0.4,2.7    c0,0.9,0.1,1.9,0.4,2.8c0.2,0.8,0.6,1.5,1,2.2c0.4,0.6,0.9,1.1,1.5,1.4c0.6,0.3,1.3,0.5,2,0.5c1.2,0.1,2.3-0.4,3.1-1.2    c0.8-1,1.2-2.3,1.1-3.7v-0.2h-3V8.5h4.7v1.6C179.1,11.1,179,12.1,178.6,13.1z"></path><path class="st0" d="M192.5,16.6V8.9h-8.1v7.7h-1.8V0.2h1.8v7h8.1v-7h1.8v16.4H192.5z"></path><path class="st0" d="M204.3,1.9v14.7h-1.8V1.9h-4.8V0.2h11.5v1.7H204.3L204.3,1.9z"></path><path class="st0" d="M221.6,14.1c-0.2,0.6-0.6,1.1-1.1,1.5c-0.5,0.4-1.1,0.8-1.7,1c-0.7,0.2-1.5,0.4-2.3,0.4    c-1.1,0-2.1-0.2-3.1-0.7c-0.9-0.4-1.7-0.9-2.4-1.6l1.2-1.4c0.6,0.6,1.3,1.1,2,1.4c0.7,0.4,1.5,0.5,2.3,0.5c0.9,0.1,1.8-0.2,2.6-0.7    c0.6-0.5,1-1.3,0.9-2.1c0-0.4-0.1-0.7-0.2-1c-0.1-0.3-0.4-0.6-0.7-0.9c-0.4-0.3-0.8-0.6-1.2-0.8c-0.6-0.3-1.2-0.6-1.9-0.8    c-0.8-0.3-1.5-0.6-2.2-0.9c-0.5-0.3-1-0.6-1.5-1c-0.4-0.3-0.6-0.8-0.8-1.2c-0.2-0.5-0.3-1-0.2-1.6c0-0.6,0.1-1.2,0.4-1.8    c0.2-0.5,0.6-0.9,1-1.3c0.5-0.4,1-0.7,1.6-0.8c0.7-0.2,1.4-0.3,2.1-0.3c1,0,1.9,0.1,2.8,0.5c0.8,0.3,1.5,0.8,2.2,1.3l-1.2,1.4    c-0.5-0.5-1.1-0.9-1.8-1.2c-0.7-0.3-1.4-0.4-2.1-0.4c-0.5,0-1,0.1-1.5,0.2c-0.4,0.1-0.7,0.3-1,0.5c-0.3,0.2-0.5,0.4-0.6,0.7    c-0.1,0.3-0.2,0.6-0.2,0.9c0,0.3,0,0.6,0.1,0.9c0.1,0.3,0.3,0.6,0.6,0.8c0.4,0.3,0.8,0.6,1.2,0.8c0.7,0.3,1.3,0.6,2,0.8    c0.8,0.3,1.5,0.6,2.3,1c0.5,0.3,1,0.6,1.5,1.1c0.4,0.4,0.6,0.8,0.8,1.3c0.2,0.5,0.2,1.1,0.2,1.6C222,12.9,221.9,13.5,221.6,14.1z"></path></g></svg>
