<?xml version="1.0" encoding="utf-8"?>
<!-- Generator: Adobe Illustrator 23.0.1, SVG Export Plug-In . SVG Version: 6.00 Build 0)  -->
<svg version="1.1" id="insights-logo" xmlns="http://www.w3.org/2000/svg" xmlns:xlink="http://www.w3.org/1999/xlink" x="0px"
	 y="0px" viewBox="0 0 226.9 43.5" style="enable-background:new 0 0 226.9 43.5;" xml:space="preserve">
<style type="text/css">
	.st0{fill:#FFFFFF;}
	.st1{font-family:'Overpass-Light';}
	.st2{font-size:28.4139px;}
</style>
<title>Red Hat Insights Logo</title>
<path class="st0" d="M8.1,14.8l-2.4-5H4v5H0V0.1h6.6c0.8,0,1.6,0.1,2.4,0.3c0.7,0.2,1.3,0.4,1.8,0.9c0.5,0.4,0.9,0.9,1.1,1.5
	c0.3,0.7,0.4,1.5,0.4,2.2c0,1-0.2,1.9-0.7,2.7c-0.5,0.7-1.1,1.2-2,1.6l3,5.6H8.1z M7.9,3.9C7.5,3.5,7,3.4,6.5,3.4H4v3.2h2.5
	c0.4,0.1,1-0.1,1.4-0.4C8.2,5.9,8.3,5.4,8.3,5C8.3,4.6,8.2,4.2,7.9,3.9z"/>
<path class="st0" d="M15.7,14.8V0.1H27v3.4h-7.3v2h4.4v3.3h-4.4v2.5h7.4v3.4H15.7L15.7,14.8z"/>
<path class="st0" d="M42.6,10.9c-0.3,0.9-0.8,1.7-1.5,2.3c-0.8,0.6-1.7,1.1-2.5,1.3c-1.1,0.3-2.3,0.4-3.4,0.4h-4.8V0.1h5.2
	c1.1,0,2.1,0.1,3.2,0.4C39.6,0.6,40.3,1,41,1.7s1.2,1.4,1.5,2.3c0.4,1.1,0.6,2.3,0.5,3.5C43.2,8.6,43,9.7,42.6,10.9z M38.8,5.7
	c-0.1-0.4-0.3-0.9-0.6-1.2c-0.3-0.4-0.6-0.5-1.1-0.7c-0.5-0.2-1.1-0.2-1.6-0.2h-1.1v7.8h0.9c0.5,0,1.1-0.1,1.6-0.2
	c0.4-0.1,0.8-0.4,1.1-0.6c0.4-0.4,0.5-0.8,0.6-1.2c0.2-0.6,0.2-1.2,0.2-1.8C38.9,6.8,38.9,6.3,38.8,5.7L38.8,5.7z"/>
<path class="st0" d="M62.5,14.8V9H58v5.8h-4.2V0.1H58v5.4h4.6V0.1h4.2v14.7H62.5z"/>
<path class="st0" d="M79.8,14.8L79,12.2h-4.4l-0.8,2.6h-4.4l5.4-14.7h4.1l5.4,14.7H79.8L79.8,14.8z M77.8,8
	c-0.1-0.4-0.3-0.9-0.4-1.2l-0.3-0.9C77.1,5.6,77,5.3,77,5.1c-0.1-0.3-0.1-0.4-0.2-0.7c0,0.3-0.1,0.5-0.2,0.7
	c-0.1,0.2-0.1,0.5-0.2,0.8l-0.3,1l-0.4,1.2l-0.3,1h2.5L77.8,8z"/>
<path class="st0" d="M92.6,3.7v11.1h-4.1V3.7h-4.1V0.1h12.4v3.6H92.6z"/>
<path class="st0" d="M102.2,2.6c-0.2,0.4-0.5,0.8-1,1c-0.5,0.2-1.1,0.2-1.5,0c-0.4-0.2-0.8-0.5-1-1c-0.2-0.5-0.2-1.1,0-1.5
	s0.5-0.9,1-1.1c0.5-0.2,1.1-0.2,1.5,0s0.8,0.5,1,1C102.4,1.6,102.4,2.2,102.2,2.6z M101.9,1.3c-0.1-0.2-0.2-0.4-0.4-0.5
	c-0.2-0.2-0.4-0.3-0.5-0.4c-0.4-0.2-0.9-0.2-1.2,0c-0.4,0.2-0.7,0.4-0.9,0.9s-0.2,0.9,0,1.2c0.2,0.4,0.4,0.7,0.9,0.9s0.9,0.2,1.2,0
	c0.2-0.1,0.4-0.2,0.5-0.4c0.2-0.2,0.3-0.4,0.4-0.5C102.1,2.2,102.1,1.7,101.9,1.3L101.9,1.3z M101.2,1.8C101.1,1.9,101,2,100.9,2
	l0.4,0.9h-0.4l-0.4-0.8h-0.4v0.8h-0.4v-2h0.9c0.1,0,0.2,0,0.3,0S101,1,101,1c0.1,0.1,0.1,0.1,0.2,0.2c0,0.1,0.1,0.2,0.1,0.3
	C101.3,1.6,101.3,1.7,101.2,1.8L101.2,1.8z M100.9,1.2c-0.1-0.1-0.2-0.1-0.3-0.1h-0.5v0.6h0.5c0.1,0,0.2,0,0.3-0.1
	C101,1.6,101,1.4,100.9,1.2L100.9,1.2z"/>
<text transform="matrix(1 0 0 1 -1.9463 40.9479)" class="st0 st1 st2">CLOUD SERVICES</text>
</svg>
