<?xml version="1.0" encoding="utf-8"?>
<!-- Generator: Adobe Illustrator 23.0.1, SVG Export Plug-In . SVG Version: 6.00 Build 0)  -->
<svg version="1.1" id="insights-logo" xmlns="http://www.w3.org/2000/svg" xmlns:xlink="http://www.w3.org/1999/xlink" x="0px"
	 y="0px" viewBox="0 0 272.1 16.9" style="enable-background:new 0 0 272.1 16.9;" xml:space="preserve">
<style type="text/css">
	.st0{fill:#FFFFFF;}
</style>
<title>Red Hat Cloud Services Logo</title>
<path class="st0" d="M9.2,16.9l-2.7-5.7H4.6v5.7H0V0.1h7.5c0.9,0,1.8,0.1,2.7,0.3c0.8,0.2,1.5,0.5,2.1,1c0.6,0.4,1,1,1.3,1.7
	c0.3,0.8,0.5,1.7,0.5,2.5c0,1.1-0.2,2.2-0.8,3.1c-0.6,0.8-1.3,1.4-2.3,1.8l3.4,6.4H9.2z M9,4.4C8.6,4,8,3.9,7.4,3.9H4.6v3.7h2.8
	C7.9,7.7,8.5,7.5,9,7.1c0.3-0.4,0.5-0.9,0.5-1.4C9.5,5.3,9.3,4.8,9,4.4z"/>
<path class="st0" d="M17.9,16.9V0.1h12.9V4h-8.3v2.3h5v3.8h-5V13h8.4v3.9H17.9L17.9,16.9z"/>
<path class="st0" d="M48.6,12.4c-0.3,1-0.9,1.9-1.7,2.6C46,15.7,45,16.2,44,16.5c-1.3,0.3-2.6,0.5-3.9,0.4h-5.5V0.1h5.9
	c1.2,0,2.4,0.1,3.6,0.4c1,0.2,1.9,0.7,2.7,1.4s1.4,1.6,1.7,2.6c0.4,1.3,0.7,2.6,0.6,4C49.2,9.8,49,11.1,48.6,12.4z M44.2,6.5
	c-0.1-0.5-0.3-1-0.7-1.4c-0.3-0.4-0.7-0.6-1.2-0.8c-0.6-0.2-1.2-0.2-1.8-0.2h-1.2V13h1c0.6,0,1.2-0.1,1.8-0.2
	c0.5-0.1,0.9-0.4,1.3-0.7c0.4-0.4,0.6-0.9,0.7-1.4c0.2-0.7,0.2-1.4,0.2-2.1C44.4,7.8,44.3,7.2,44.2,6.5L44.2,6.5z"/>
<path class="st0" d="M71.3,16.9v-6.6h-5.2v6.6h-4.8V0.1h4.8v6.1h5.2V0.1h4.8v16.8H71.3z"/>
<path class="st0" d="M91,16.9l-0.9-3h-5l-0.9,3h-5l6.1-16.8H90l6.1,16.8H91L91,16.9z M88.7,9.1c-0.1-0.5-0.3-1-0.4-1.4l-0.3-1
	c-0.1-0.3-0.2-0.6-0.2-0.9c-0.1-0.3-0.1-0.5-0.2-0.8c0,0.3-0.1,0.6-0.2,0.8s-0.1,0.6-0.2,0.9l-0.3,1.1l-0.4,1.4l-0.3,1.1H89
	L88.7,9.1z"/>
<path class="st0" d="M105.6,4.2v12.7h-4.7V4.2h-4.7V0.1h14.1v4.1H105.6z"/>
<path class="st0" d="M116.5,3c-0.2,0.5-0.6,0.9-1.1,1.1c-0.6,0.2-1.2,0.2-1.7,0c-0.5-0.2-0.9-0.6-1.1-1.1c-0.2-0.6-0.2-1.2,0-1.7
	s0.6-1,1.1-1.2c0.6-0.2,1.2-0.2,1.7,0s0.9,0.6,1.1,1.1C116.8,1.8,116.8,2.5,116.5,3z M116.2,1.5c-0.1-0.2-0.2-0.4-0.4-0.6
	c-0.2-0.2-0.4-0.3-0.6-0.4c-0.5-0.2-1-0.2-1.4,0c-0.5,0.2-0.8,0.5-1,1s-0.2,1,0,1.4c0.2,0.5,0.5,0.8,1,1c0.5,0.2,1,0.2,1.4,0
	c0.2-0.1,0.4-0.2,0.6-0.4s0.3-0.4,0.4-0.6C116.4,2.5,116.4,1.9,116.2,1.5L116.2,1.5z M115.4,2.1c-0.1,0.1-0.2,0.2-0.4,0.2l0.5,1H115
	l-0.5-0.9h-0.4v0.9h-0.4V1h1c0.1,0,0.2,0,0.3,0c0.1,0,0.2,0.1,0.2,0.1c0.1,0.1,0.1,0.1,0.2,0.2c0,0.1,0.1,0.2,0.1,0.3
	C115.5,1.8,115.5,2,115.4,2.1L115.4,2.1z M115,1.4c-0.1-0.1-0.2-0.1-0.3-0.1h-0.6V2h0.6c0.1,0,0.2,0,0.3-0.1
	C115.1,1.8,115.1,1.6,115,1.4L115,1.4z"/>
<g>
	<path class="st0" d="M122.7,8.5c0-4.4,2-8.4,6.7-8.4c2.9,0,4.1,1.3,4.9,2.6l-1.4,0.8c-0.7-1-1.6-2-3.5-2c-3.7,0-5,3.7-5,6.9
		c0,3.6,1.5,6.9,5,6.9c1.9,0,3-0.8,3.7-2.1l1.4,0.6c-0.7,1.5-2.4,3-5.2,3C124.6,16.9,122.7,12.7,122.7,8.5z"/>
	<path class="st0" d="M138.1,0.7l1.6-0.8v16.7h-1.6V0.7z"/>
	<path class="st0" d="M143.2,10.7c0-3.9,2-6.2,5.1-6.2c3,0,5.1,2.2,5.1,6.2c0,3.9-2,6.2-5.1,6.2C145.2,16.9,143.2,14.6,143.2,10.7z
		 M151.6,10.7c0-2.9-1.2-4.7-3.4-4.7c-2.2,0-3.4,1.7-3.4,4.7c0,2.9,1.2,4.7,3.4,4.7C150.4,15.4,151.6,13.6,151.6,10.7z"/>
	<path class="st0" d="M163.8,15.5c-0.8,1.1-1.7,1.4-2.9,1.4c-3,0-4.3-1.6-4.3-5.5V4.8h1.6V12c0,2.5,1.2,3.4,2.7,3.4
		c1.7,0,2.9-0.8,2.9-3.4V4.8h1.6v11.8h-1.6V15.5z"/>
	<path class="st0" d="M168.8,10.7c0-3.9,1.9-6.2,4.9-6.2c1.5,0,2.4,0.5,3.1,1.1V0.7l1.6-0.8v16.7h-1.6v-1c-0.7,0.7-1.7,1.3-3.1,1.3
		C170.6,16.9,168.8,14.4,168.8,10.7z M176.8,13.6V7.7c-0.5-0.8-1.5-1.7-3-1.7c-2.2,0-3.4,1.7-3.4,4.7c0,2.6,1.3,4.7,3.4,4.7
		C175,15.4,176.1,14.7,176.8,13.6z"/>
	<path class="st0" d="M187.3,13.6l1.5-0.6c0.6,1.4,2,2.4,3.9,2.4c2.1,0,3.4-1,3.4-3c0-2-1.8-3-3.6-3.8c-2.3-0.9-4.7-2.1-4.7-4.8
		c0-2.1,1.8-3.8,4.8-3.8c2.4,0,4.1,1.1,4.5,2.6l-1.5,0.5c-0.4-0.9-1.5-1.6-3.1-1.6c-1.9,0-3,0.9-3,2.3c0,1.7,1.8,2.5,3.7,3.2
		c2.2,0.9,4.7,2.2,4.7,5.3c0,2.9-2.1,4.5-5.1,4.5C190,16.9,187.9,15.3,187.3,13.6z"/>
	<path class="st0" d="M200.8,10.7c0-3.9,2.1-6.2,5.1-6.2c2.5,0,4.7,1.7,4.7,5.7c0,0.3,0,0.6,0,1.1h-8c0.3,2.4,1.5,4,3.5,4
		c0.9,0,1.8-0.3,2.7-0.9l0.9,1.1c-0.9,0.8-2.2,1.3-3.6,1.3C202.7,16.9,200.8,14,200.8,10.7z M208.9,9.9c0-3.2-1.8-3.9-3-3.9
		c-1.9,0-3.3,1.2-3.5,3.9H208.9z"/>
	<path class="st0" d="M213.8,4.8h1.6v1.7c0.9-1.3,2.1-1.9,3.2-1.9c0.6,0,1.1,0.2,1.5,0.5l-0.3,1.6c-0.3-0.2-0.8-0.4-1.5-0.4
		c-1.1,0-2.9,0.9-2.9,3.8v6.7h-1.6V4.8z"/>
	<path class="st0" d="M221.6,4.8h1.7l2.9,8c0.1,0.4,0.3,0.8,0.4,1.2c0.1-0.5,0.3-0.8,0.4-1.2l2.8-8h1.6L227,16.6h-1.1L221.6,4.8z"/>
	<path class="st0" d="M234.1,1.3c0-0.6,0.5-1.1,1.1-1.1c0.6,0,1.1,0.5,1.1,1.1c0,0.6-0.4,1.1-1.1,1.1C234.5,2.4,234.1,1.9,234.1,1.3
		z M234.3,4.8h1.6v11.8h-1.6V4.8z"/>
	<path class="st0" d="M239.3,10.7c0-3.9,1.8-6.2,4.8-6.2c1.8,0,3.1,0.9,3.8,2.5l-1.5,0.6c-0.4-0.9-1.1-1.6-2.4-1.6
		c-2.2,0-3.1,1.8-3.1,4.7c0,3,1,4.7,3,4.7c1.3,0,2.2-0.7,2.6-1.8l1.5,0.6c-0.6,1.7-2.1,2.7-4.1,2.7
		C241.1,16.9,239.3,14.6,239.3,10.7z"/>
	<path class="st0" d="M250.4,10.7c0-3.9,2.1-6.2,5.1-6.2c2.5,0,4.7,1.7,4.7,5.7c0,0.3,0,0.6,0,1.1h-8c0.3,2.4,1.5,4,3.5,4
		c0.9,0,1.8-0.3,2.7-0.9l0.9,1.1c-0.9,0.8-2.2,1.3-3.6,1.3C252.4,16.9,250.4,14,250.4,10.7z M258.6,9.9c0-3.2-1.8-3.9-3-3.9
		c-1.9,0-3.3,1.2-3.5,3.9H258.6z"/>
	<path class="st0" d="M262.7,14.8l1.1-1c0.7,0.9,1.8,1.6,3.1,1.6c1.3,0,2.3-0.6,2.3-1.7c0-1.4-1.5-2.1-2.9-2.6
		c-1.9-0.8-3.5-1.6-3.5-3.6c0-1.8,1.6-3,3.8-3c1.6,0,2.9,0.7,3.8,1.8l-1.1,0.9c-0.6-0.6-1.5-1.3-2.8-1.3c-1.4,0-2.2,0.6-2.2,1.5
		c0,1.2,1.3,1.7,2.7,2.3c1.8,0.7,3.8,1.5,3.8,3.9c0,2-1.5,3.2-4,3.2C265.2,16.9,263.7,16,262.7,14.8z"/>
</g>
</svg>
